<svg width="64" height="64" viewBox="0 0 64 64" fill="none" xmlns="http://www.w3.org/2000/svg">
<g filter="url(#filter0_i_486_541)">
<path d="M13.278 4.75142C7.17008 2.23579 1.32776 4.75142 1.32776 4.75142V7.64204L1.34346 7.63508C1.3888 7.61504 1.45565 7.58623 1.54265 7.55067C1.71665 7.47955 1.97131 7.38141 2.2957 7.2725C2.94439 7.05473 3.87263 6.79367 4.99302 6.61964C7.22042 6.27366 10.2131 6.27082 13.278 7.6423V4.75142Z" fill="url(#paint0_linear_486_541)"/>
<path d="M13.278 7.79428L13.2255 7.92265C10.2008 6.55403 7.23982 6.55315 5.03179 6.89612C3.92811 7.06756 3.01403 7.3247 2.37641 7.53876C2.05766 7.64577 1.80816 7.74196 1.6388 7.81118C1.55412 7.84579 1.48949 7.87366 1.44627 7.89276C1.42466 7.90231 1.4084 7.90967 1.39766 7.91458L1.38572 7.92008L1.3829 7.9214L1.38228 7.92169L1.32776 7.79428V9.33311C1.32776 9.33311 7.17008 6.56938 13.278 9.33311V7.79428Z" fill="url(#paint1_linear_486_541)"/>
<path fill-rule="evenodd" clip-rule="evenodd" d="M1.32776 60.9261V10.451C1.32776 10.451 7.17008 7.68728 13.278 10.451V60.9261H1.32776ZM2.39 11.738H12.2157V56.4541H2.39V11.738Z" fill="url(#paint2_linear_486_541)"/>
<path d="M11.6846 12.2969H2.92112V55.8952H11.6846V12.2969Z" fill="url(#paint3_linear_486_541)"/>
</g>
<path fill-rule="evenodd" clip-rule="evenodd" d="M15.3403 60.9259C14.788 60.9259 14.3403 60.4782 14.3403 59.9259L14.3403 54.1006C14.3403 53.5483 14.788 53.1006 15.3403 53.1006L17.0583 53.1006L17.0583 60.9259L15.3403 60.9259ZM18.0583 60.9259L18.0583 53.1006L24.494 53.1006L24.494 60.9259L18.0583 60.9259ZM25.494 60.9259L53.4399 60.9259C53.9922 60.9259 54.4399 60.4782 54.4399 59.9259L54.4399 54.1006C54.4399 53.5483 53.9922 53.1006 53.4399 53.1006L25.494 53.1006L25.494 60.9259Z" fill="url(#paint4_linear_486_541)"/>
<rect x="19" y="27" width="30.7424" height="26.0249" fill="#1B1C22"/>
<rect x="19" y="27.5312" width="3.63319" height="24.9627" fill="#0B0B0F"/>
<path d="M43.3327 50.0794C41.2621 51.4348 38.7526 52.2284 36.048 52.2284C28.9479 52.2284 23.1921 46.7592 23.1921 40.0126C23.1921 37.4529 24.0207 35.0771 25.4369 33.1141L33.4424 38.4617C33.1455 38.9111 32.9738 39.4428 32.9738 40.0126C32.9738 41.626 34.3502 42.9338 36.048 42.9338C36.6798 42.9338 37.267 42.7527 37.7554 42.4422L43.3327 50.0794Z" fill="url(#paint5_linear_486_541)"/>
<path d="M43.5612 49.9263L37.9805 42.2846C38.064 42.2204 38.1439 42.1521 38.2199 42.0801L45.0741 48.7113C44.6038 49.1519 44.098 49.5583 43.5612 49.9263Z" fill="url(#paint6_linear_486_541)"/>
<path d="M45.2705 48.5233L38.3569 41.9414C38.409 41.8852 38.4588 41.8271 38.5062 41.7671L46.5934 47.0016C46.1956 47.5425 45.7529 48.0513 45.2705 48.5233Z" fill="url(#paint7_linear_486_541)"/>
<path d="M46.7676 46.7585L38.6644 41.5472C38.9547 41.1013 39.1223 40.5756 39.1223 40.0126C39.1223 38.3993 37.7459 37.0915 36.048 37.0915C35.4819 37.0915 34.9516 37.2369 34.4961 37.4905L28.949 29.8267C30.9832 28.544 33.4238 27.7969 36.048 27.7969C43.1481 27.7969 48.9039 33.2661 48.9039 40.0126C48.9039 42.5064 48.1176 44.8255 46.7676 46.7585Z" fill="url(#paint8_linear_486_541)"/>
<path fill-rule="evenodd" clip-rule="evenodd" d="M34.4199 37.8539C34.347 37.9037 34.2766 37.9568 34.2091 38.0128C34.204 38.0171 34.1989 38.0213 34.1939 38.0256C34.1292 38.0801 34.0672 38.1375 34.0081 38.1974C33.9456 38.2608 33.8863 38.3272 33.8304 38.3962C33.8299 38.3969 33.8293 38.3976 33.8288 38.3983C33.7727 38.4678 33.7202 38.54 33.6714 38.6146C33.4063 39.0207 33.2533 39.4997 33.2533 40.0126C33.2533 41.4793 34.5045 42.6682 36.048 42.6682C36.6206 42.6682 37.1529 42.5047 37.5961 42.224C37.6009 42.2209 37.6058 42.2178 37.6106 42.2147C37.6831 42.1681 37.7533 42.1184 37.8207 42.0658C37.8915 42.0105 37.9593 41.9521 38.024 41.8906L38.0044 41.8716L38.1441 41.7388L38.159 41.753C38.1992 41.7091 38.2379 41.6638 38.275 41.6174C38.2792 41.6122 38.2834 41.6068 38.2876 41.6015C38.3391 41.536 38.3876 41.4682 38.4327 41.3982C38.6928 40.9948 38.8428 40.5204 38.8428 40.0126C38.8428 38.546 37.5915 37.357 36.048 37.357C35.5408 37.357 35.065 37.4855 34.6549 37.71C34.6458 37.7149 34.6368 37.72 34.6278 37.725C34.5564 37.7651 34.487 37.8082 34.4199 37.8539ZM36.048 41.099C36.6795 41.099 37.1914 40.6126 37.1914 40.0126C37.1914 39.4127 36.6795 38.9263 36.048 38.9263C35.4166 38.9263 34.9047 39.4127 34.9047 40.0126C34.9047 40.6126 35.4166 41.099 36.048 41.099Z" fill="url(#paint9_linear_486_541)"/>
<path d="M33.6008 38.2444C33.6668 38.162 33.7374 38.083 33.8121 38.0078L26.9564 31.3759C26.4497 31.8575 25.9851 32.3791 25.5683 32.9353L33.6008 38.2444Z" fill="url(#paint10_linear_486_541)"/>
<path d="M28.6934 29.992C28.1266 30.3684 27.5931 30.787 27.0982 31.2431L34.0113 37.8245C34.0909 37.7575 34.1742 37.6945 34.2608 37.6355L28.6934 29.992Z" fill="url(#paint11_linear_486_541)"/>
<path d="M45.2704 48.5234L38.3568 41.9415C38.4089 41.8853 38.4587 41.8271 38.5061 41.7672L46.5932 47.0017C46.1955 47.5426 45.7528 48.0514 45.2704 48.5234Z" fill="url(#paint12_linear_486_541)"/>
<path d="M43.561 49.9262L37.9803 42.2845C38.0639 42.2203 38.1437 42.152 38.2197 42.08L45.0739 48.7112C44.6036 49.1518 44.0979 49.5582 43.561 49.9262Z" fill="url(#paint13_linear_486_541)"/>
<path d="M33.6007 38.2444C33.6668 38.1619 33.7373 38.0829 33.8121 38.0077L26.9563 31.3759C26.4496 31.8574 25.985 32.379 25.5682 32.9352L33.6007 38.2444Z" fill="url(#paint14_linear_486_541)"/>
<path d="M28.6933 29.9919C28.1265 30.3683 27.5931 30.7869 27.0981 31.2431L34.0112 37.8244C34.0909 37.7575 34.1741 37.6944 34.2608 37.6355L28.6933 29.9919Z" fill="url(#paint15_linear_486_541)"/>
<mask id="path-10-inside-1_486_541" fill="white">
<path fill-rule="evenodd" clip-rule="evenodd" d="M56.5022 6.98692C55.9499 6.98692 55.5022 7.43463 55.5022 7.98692L55.5022 59.9258C55.5022 60.4781 55.9499 60.9258 56.5022 60.9258L61.4068 60.9258C61.959 60.9258 62.4068 60.4781 62.4068 59.9258L62.4068 7.98692C62.4068 7.43463 61.959 6.98692 61.4068 6.98692L56.5022 6.98692Z"/>
</mask>
<path fill-rule="evenodd" clip-rule="evenodd" d="M56.5022 6.98692C55.9499 6.98692 55.5022 7.43463 55.5022 7.98692L55.5022 59.9258C55.5022 60.4781 55.9499 60.9258 56.5022 60.9258L61.4068 60.9258C61.959 60.9258 62.4068 60.4781 62.4068 59.9258L62.4068 7.98692C62.4068 7.43463 61.959 6.98692 61.4068 6.98692L56.5022 6.98692Z" fill="#333333"/>
<path d="M58.7043 60.9258L58.7043 7.26645L58.2043 7.26645L58.2043 60.9258L58.7043 60.9258ZM61.4068 6.98692L61.4068 6.48692L61.4068 6.98692ZM56.5022 6.98692L56.5022 7.48692L56.5022 6.98692ZM56.0022 59.9258L56.0022 7.98692L55.0022 7.98692L55.0022 59.9258L56.0022 59.9258ZM61.4068 60.4258L56.5022 60.4258L56.5022 61.4258L61.4068 61.4258L61.4068 60.4258ZM61.9068 7.98692L61.9068 59.9258L62.9068 59.9258L62.9068 7.98692L61.9068 7.98692ZM56.5022 7.48692L61.4068 7.48692L61.4068 6.48692L56.5022 6.48692L56.5022 7.48692ZM62.9068 7.98692C62.9068 7.15849 62.2352 6.48692 61.4068 6.48692L61.4068 7.48692C61.6829 7.48692 61.9068 7.71077 61.9068 7.98692L62.9068 7.98692ZM61.4068 61.4258C62.2352 61.4258 62.9068 60.7542 62.9068 59.9258L61.9068 59.9258C61.9068 60.2019 61.6829 60.4258 61.4068 60.4258L61.4068 61.4258ZM56.0022 7.98692C56.0022 7.71077 56.2261 7.48692 56.5022 7.48692L56.5022 6.48692C55.6738 6.48692 55.0022 7.15849 55.0022 7.98692L56.0022 7.98692ZM55.0022 59.9258C55.0022 60.7542 55.6738 61.4258 56.5022 61.4258L56.5022 60.4258C56.2261 60.4258 56.0022 60.2019 56.0022 59.9258L55.0022 59.9258Z" fill="black" mask="url(#path-10-inside-1_486_541)"/>
<rect x="56.5642" y="48.0701" width="38.0087" height="4.78008" rx="1" transform="rotate(-90 56.5642 48.0701)" fill="url(#paint16_linear_486_541)"/>
<path d="M30.6258 22.1185C30.3787 21.9388 29.8395 21.2845 29.7304 20.9119C29.6285 20.564 29.6533 19.5305 29.9343 19.2527L29.8512 19.1572L29.923 19.0477C29.8444 19.0867 29.776 19.1544 29.7186 19.2494C29.4632 19.6742 29.4654 20.6277 29.5633 20.9622C29.6585 21.2862 30.0363 21.7919 30.329 22.0885L30.6258 22.1185Z" fill="url(#paint17_linear_486_541)"/>
<path d="M29.7304 20.9119C29.8395 21.2845 30.3787 21.9388 30.6258 22.1185L30.329 22.0885C30.424 22.1849 30.5101 22.2592 30.5746 22.298C30.6392 22.3358 30.7021 22.3641 30.7625 22.3799C30.8112 22.5717 30.8606 22.7147 30.913 22.8148C31.0307 23.0397 32.1729 24.2806 33.1141 24.8074C33.4133 24.9744 33.8175 25 34.0318 25C34.0678 25 34.0937 24.999 34.1064 24.9985L34.1067 24.9985C34.1197 24.999 34.1453 25 34.1808 25C34.3954 25 34.7995 24.9744 35.0985 24.8077C36.0409 24.2801 37.1827 23.0392 37.2999 22.8146C37.3329 22.7511 37.3648 22.6703 37.3961 22.5709L37.2101 22.5774C37.2446 22.478 37.2781 22.3589 37.3099 22.2206C37.3632 22.2246 37.4422 22.2115 37.5499 22.1474C37.7764 22.0103 38.368 21.303 38.4832 20.9119C38.556 20.6628 38.564 20.0624 38.4596 19.6395C38.4135 19.6766 38.3623 19.7162 38.308 19.7572C38.3833 20.1312 38.3812 20.6438 38.3171 20.8629C38.2141 21.2139 37.6453 21.887 37.4613 21.997C37.386 22.0419 37.3422 22.047 37.327 22.047L37.1743 22.0364L37.1411 22.1819C37.0784 22.4558 37.0261 22.5887 36.9931 22.6518C36.904 22.817 35.8266 24.0002 34.9302 24.502C34.6845 24.64 34.2948 24.6506 34.181 24.6506C34.1488 24.6506 34.1272 24.65 34.119 24.6497L34.1155 24.6496L34.1069 24.6492L34.0981 24.6496C34.0959 24.6496 34.0717 24.6506 34.0321 24.6506C33.9188 24.6506 33.529 24.64 33.2829 24.502C32.387 24.0007 31.3086 22.817 31.22 22.6518C31.1872 22.5887 31.1349 22.4558 31.072 22.1819L31.0385 22.036L30.8905 22.047H30.8861C30.8707 22.047 30.8274 22.0426 30.7523 21.9975C30.5678 21.8863 29.9992 21.2139 29.8962 20.8629C29.8089 20.5653 29.8358 19.7295 30.0156 19.4299C30.0275 19.4103 30.0387 19.3953 30.0487 19.3842L29.9343 19.2527C29.6533 19.5305 29.6285 20.564 29.7304 20.9119Z" fill="url(#paint18_linear_486_541)"/>
<path fill-rule="evenodd" clip-rule="evenodd" d="M45 17.3066L40.0945 20.066L42.5043 20.712L38.7604 21.8301L40.0947 22.4763L37.3961 22.5709L37.2101 22.5774C37.2446 22.478 37.2781 22.3589 37.3099 22.2206C37.3632 22.2246 37.4422 22.2115 37.5499 22.1474C37.7764 22.0103 38.368 21.303 38.4832 20.9119C38.556 20.6628 38.564 20.0624 38.4596 19.6395C38.4135 19.6766 38.3623 19.7162 38.308 19.7572C37.9263 20.0447 37.3918 20.3959 37.3918 20.3959L37.8254 19.4703C37.8254 19.4703 37.3569 19.831 37.1147 19.977C37.2876 19.4881 37.6211 18.2608 37.5301 18.0381C37.477 17.9082 37.3569 17.8461 37.3569 17.8461C37.305 18.2013 36.2652 19.8665 35.4674 20.7278C35.4776 20.6751 35.4886 20.6186 35.5003 20.5588C35.668 19.7006 35.9701 18.1544 35.7272 17.1473C34.8257 17.4969 33.1677 19.4997 32.6243 20.5537C32.4575 19.6799 32.5377 17.6192 32.5377 17.6192C32.5377 17.6192 31.8503 17.9457 31.5843 18.5162C31.3764 19.1042 31.5496 20.1525 31.5496 20.1525L30.7349 19.384L30.8391 20.2923L30.0487 19.3842L29.9343 19.2527L29.8512 19.1572L29.923 19.0477C29.9527 19.033 29.9838 19.0224 30.0163 19.0159C30.1145 18.9967 30.2104 19.0002 30.2972 19.0246C30.3033 18.7851 30.3373 18.5502 30.398 18.3228L29.923 19.0477C29.8444 19.0867 29.776 19.1544 29.7186 19.2494C29.4632 19.6742 29.4654 20.6277 29.5633 20.9622C29.6585 21.2862 30.0363 21.7919 30.329 22.0885L26.3847 21.6898L28.4819 20.4669C28.4819 20.4669 27.2163 19.5588 23.4379 18.8251C23.4379 18.8251 26.5058 16.991 28.2566 16.834C28.2566 16.834 27.7364 14.3361 23 11.8558C24.3392 10.965 26.8354 9.63736 28.031 9.70738C30.0763 10.0217 31.8962 12.0657 31.8962 12.0657C31.8962 12.0657 32.3643 10.6332 31.0989 7C31.3444 7.06771 31.5899 7.13153 31.8326 7.19463C33.2178 7.55479 34.5121 7.89131 35.1937 8.7907C36.459 10.8171 36.2814 13.0962 36.2814 13.0962C36.2814 13.0962 37.5291 13.4631 38.0837 14.022C38.9938 14.9395 39.089 15.6466 39.089 15.6466L43.5262 15.2972L41.5333 17.0963L45 17.3066Z" fill="url(#paint19_linear_486_541)"/>
<path d="M30.0163 19.0159C30.1145 18.9967 30.2104 19.0002 30.2972 19.0246C30.3033 18.7851 30.3373 18.5502 30.398 18.3228L29.923 19.0477C29.9527 19.033 29.9838 19.0224 30.0163 19.0159Z" fill="url(#paint20_linear_486_541)"/>
<defs>
<filter id="filter0_i_486_541" x="1.32776" y="3.63336" width="15.9502" height="61.2928" filterUnits="userSpaceOnUse" color-interpolation-filters="sRGB">
<feFlood flood-opacity="0" result="BackgroundImageFix"/>
<feBlend mode="normal" in="SourceGraphic" in2="BackgroundImageFix" result="shape"/>
<feColorMatrix in="SourceAlpha" type="matrix" values="0 0 0 0 0 0 0 0 0 0 0 0 0 0 0 0 0 0 127 0" result="hardAlpha"/>
<feOffset dx="4" dy="4"/>
<feGaussianBlur stdDeviation="2"/>
<feComposite in2="hardAlpha" operator="arithmetic" k2="-1" k3="1"/>
<feColorMatrix type="matrix" values="0 0 0 0 1 0 0 0 0 1 0 0 0 0 1 0 0 0 0.25 0"/>
<feBlend mode="normal" in2="shape" result="effect1_innerShadow_486_541"/>
</filter>
<linearGradient id="paint0_linear_486_541" x1="1.32776" y1="3.63336" x2="1.32776" y2="58.6344" gradientUnits="userSpaceOnUse">
<stop stop-color="#00D1FF"/>
<stop offset="1" stop-color="#EF0182"/>
</linearGradient>
<linearGradient id="paint1_linear_486_541" x1="1.32776" y1="3.63336" x2="1.32776" y2="58.6344" gradientUnits="userSpaceOnUse">
<stop stop-color="#00D1FF"/>
<stop offset="1" stop-color="#EF0182"/>
</linearGradient>
<linearGradient id="paint2_linear_486_541" x1="1.32776" y1="3.63336" x2="1.32776" y2="58.6344" gradientUnits="userSpaceOnUse">
<stop stop-color="#00D1FF"/>
<stop offset="1" stop-color="#EF0182"/>
</linearGradient>
<linearGradient id="paint3_linear_486_541" x1="1.32776" y1="3.63336" x2="1.32776" y2="58.6344" gradientUnits="userSpaceOnUse">
<stop stop-color="#00D1FF"/>
<stop offset="1" stop-color="#EF0182"/>
</linearGradient>
<linearGradient id="paint4_linear_486_541" x1="14.3403" y1="60.9259" x2="54.4399" y2="60.9259" gradientUnits="userSpaceOnUse">
<stop stop-color="#FF2CDF"/>
<stop offset="1" stop-color="#0014FF"/>
</linearGradient>
<linearGradient id="paint5_linear_486_541" x1="24.2849" y1="52.2284" x2="24.7491" y2="27.8033" gradientUnits="userSpaceOnUse">
<stop stop-color="#ED5F5F"/>
<stop offset="1" stop-color="#008C99"/>
</linearGradient>
<linearGradient id="paint6_linear_486_541" x1="24.2849" y1="52.2284" x2="24.7491" y2="27.8033" gradientUnits="userSpaceOnUse">
<stop stop-color="#ED5F5F"/>
<stop offset="1" stop-color="#008C99"/>
</linearGradient>
<linearGradient id="paint7_linear_486_541" x1="24.2849" y1="52.2284" x2="24.7491" y2="27.8033" gradientUnits="userSpaceOnUse">
<stop stop-color="#ED5F5F"/>
<stop offset="1" stop-color="#008C99"/>
</linearGradient>
<linearGradient id="paint8_linear_486_541" x1="24.2849" y1="52.2284" x2="24.7491" y2="27.8033" gradientUnits="userSpaceOnUse">
<stop stop-color="#ED5F5F"/>
<stop offset="1" stop-color="#008C99"/>
</linearGradient>
<linearGradient id="paint9_linear_486_541" x1="24.2849" y1="52.2284" x2="24.7491" y2="27.8033" gradientUnits="userSpaceOnUse">
<stop stop-color="#ED5F5F"/>
<stop offset="1" stop-color="#008C99"/>
</linearGradient>
<linearGradient id="paint10_linear_486_541" x1="24.2849" y1="52.2284" x2="24.7491" y2="27.8033" gradientUnits="userSpaceOnUse">
<stop stop-color="#ED5F5F"/>
<stop offset="1" stop-color="#008C99"/>
</linearGradient>
<linearGradient id="paint11_linear_486_541" x1="24.2849" y1="52.2284" x2="24.7491" y2="27.8033" gradientUnits="userSpaceOnUse">
<stop stop-color="#ED5F5F"/>
<stop offset="1" stop-color="#008C99"/>
</linearGradient>
<linearGradient id="paint12_linear_486_541" x1="38.7069" y1="48.5234" x2="38.8177" y2="41.7684" gradientUnits="userSpaceOnUse">
<stop stop-color="#ED5F5F"/>
<stop offset="1" stop-color="#008C99"/>
</linearGradient>
<linearGradient id="paint13_linear_486_541" x1="38.2818" y1="49.9262" x2="38.4553" y2="42.083" gradientUnits="userSpaceOnUse">
<stop stop-color="#ED5F5F"/>
<stop offset="1" stop-color="#008C99"/>
</linearGradient>
<linearGradient id="paint14_linear_486_541" x1="25.9186" y1="38.2444" x2="26.033" y2="31.3771" gradientUnits="userSpaceOnUse">
<stop stop-color="#ED5F5F"/>
<stop offset="1" stop-color="#008C99"/>
</linearGradient>
<linearGradient id="paint15_linear_486_541" x1="27.4026" y1="37.8244" x2="27.5738" y2="29.9949" gradientUnits="userSpaceOnUse">
<stop stop-color="#ED5F5F"/>
<stop offset="1" stop-color="#008C99"/>
</linearGradient>
<linearGradient id="paint16_linear_486_541" x1="56.5642" y1="52.8502" x2="56.5642" y2="48.0701" gradientUnits="userSpaceOnUse">
<stop stop-color="#73F6AF"/>
<stop offset="1" stop-color="#ED5F5F"/>
</linearGradient>
<linearGradient id="paint17_linear_486_541" x1="29.05" y1="25" x2="29.05" y2="7" gradientUnits="userSpaceOnUse">
<stop stop-color="#00D1FF"/>
<stop offset="1" stop-color="#73F6AF"/>
</linearGradient>
<linearGradient id="paint18_linear_486_541" x1="29.05" y1="25" x2="29.05" y2="7" gradientUnits="userSpaceOnUse">
<stop stop-color="#00D1FF"/>
<stop offset="1" stop-color="#73F6AF"/>
</linearGradient>
<linearGradient id="paint19_linear_486_541" x1="29.05" y1="25" x2="29.05" y2="7" gradientUnits="userSpaceOnUse">
<stop stop-color="#00D1FF"/>
<stop offset="1" stop-color="#73F6AF"/>
</linearGradient>
<linearGradient id="paint20_linear_486_541" x1="29.05" y1="25" x2="29.05" y2="7" gradientUnits="userSpaceOnUse">
<stop stop-color="#00D1FF"/>
<stop offset="1" stop-color="#73F6AF"/>
</linearGradient>
</defs>
</svg>
