<svg width="241" height="229" viewBox="0 0 241 229" fill="none" xmlns="http://www.w3.org/2000/svg">
<g filter="url(#filter0_i_437_685)">
<path d="M50 17.0013C27 8.00005 5 17.0013 5 17.0013V27.3443L5.05912 27.3194C5.22985 27.2477 5.48159 27.1446 5.80921 27.0173C6.46442 26.7629 7.42335 26.4117 8.64492 26.022C11.0876 25.2428 14.583 24.3087 18.802 23.686C27.1896 22.448 38.4587 22.4379 50 27.3452V17.0013Z" fill="url(#paint0_linear_437_685)"/>
<path d="M50 27.889L49.8025 28.3484C38.4127 23.4512 27.2626 23.4481 18.948 24.6753C14.792 25.2887 11.3499 26.2088 8.94883 26.9747C7.74852 27.3576 6.80901 27.7018 6.17125 27.9495C5.85239 28.0733 5.60902 28.173 5.44626 28.2414C5.36488 28.2756 5.30365 28.3019 5.26323 28.3195L5.21827 28.3392L5.20764 28.3439L5.20531 28.3449L5 27.889V33.3951C5 33.3951 27 23.5062 50 33.3951V27.889Z" fill="url(#paint1_linear_437_685)"/>
<path fill-rule="evenodd" clip-rule="evenodd" d="M5 218.001V37.3951C5 37.3951 27 27.5062 50 37.3951V218.001H5ZM9 42H46V202H9V42Z" fill="url(#paint2_linear_437_685)"/>
<path d="M44 44H11V200H44V44Z" fill="url(#paint3_linear_437_685)"/>
</g>
<path d="M20 84.058C20 83.8087 20.0513 83.6033 20.154 83.442C20.2713 83.2807 20.44 83.2 20.66 83.2L36.522 83.2C36.7273 83.2 36.8887 83.2587 37.006 83.376C37.1233 83.508 37.182 83.6693 37.182 83.86L37.182 89.25C37.182 90.0713 36.9987 90.8193 36.632 91.494C36.28 92.1687 35.7887 92.7113 35.158 93.122C34.542 93.5327 33.8307 93.738 33.024 93.738C32.1733 93.738 31.4253 93.5107 30.78 93.056C30.1493 92.616 29.6727 92.0367 29.35 91.318C29.0713 92.3153 28.558 93.1147 27.81 93.716C27.062 94.332 26.1233 94.64 24.994 94.64C24.026 94.64 23.1607 94.42 22.398 93.98C21.65 93.5547 21.0633 92.9607 20.638 92.198C20.2127 91.4353 20 90.5627 20 89.58L20 84.058ZM21.32 84.52L21.32 89.58C21.32 90.3133 21.474 90.9587 21.782 91.516C22.1047 92.0733 22.5373 92.5133 23.08 92.836C23.6373 93.1587 24.2753 93.32 24.994 93.32C25.698 93.32 26.3213 93.1587 26.864 92.836C27.4067 92.5133 27.832 92.0733 28.14 91.516C28.448 90.9587 28.602 90.3133 28.602 89.58L28.602 84.52L21.32 84.52ZM29.922 84.52L29.922 89.25C29.922 90.174 30.2007 90.9293 30.758 91.516C31.33 92.1173 32.0853 92.418 33.024 92.418C33.9333 92.418 34.63 92.1173 35.114 91.516C35.6127 90.9293 35.862 90.174 35.862 89.25L35.862 84.52L29.922 84.52ZM19.868 103.326C19.868 102.152 20.132 101.096 20.66 100.158C21.2027 99.2337 21.936 98.5004 22.86 97.9577C23.7987 97.4297 24.8473 97.1657 26.006 97.1657C27.1793 97.1657 28.228 97.4297 29.152 97.9577C30.0907 98.5004 30.824 99.2337 31.352 100.158C31.8947 101.096 32.166 102.152 32.166 103.326C32.166 104.499 31.8947 105.548 31.352 106.472C30.824 107.396 30.0907 108.122 29.152 108.65C28.228 109.192 27.1793 109.464 26.006 109.464C24.8473 109.464 23.7987 109.192 22.86 108.65C21.936 108.122 21.2027 107.396 20.66 106.472C20.132 105.548 19.868 104.499 19.868 103.326ZM21.1 103.326C21.1 104.25 21.3127 105.071 21.738 105.79C22.178 106.523 22.7647 107.095 23.498 107.506C24.246 107.931 25.0893 108.144 26.028 108.144C26.952 108.144 27.7807 107.931 28.514 107.506C29.262 107.095 29.8487 106.523 30.274 105.79C30.714 105.071 30.934 104.25 30.934 103.326C30.934 102.416 30.714 101.595 30.274 100.862C29.8487 100.128 29.262 99.549 28.514 99.1237C27.7807 98.6984 26.9447 98.4857 26.006 98.4857C25.082 98.4857 24.246 98.6984 23.498 99.1237C22.7647 99.549 22.178 100.128 21.738 100.862C21.3127 101.595 21.1 102.416 21.1 103.326ZM19.868 118.257C19.868 117.084 20.132 116.028 20.66 115.089C21.2027 114.165 21.936 113.432 22.86 112.889C23.7987 112.361 24.8473 112.097 26.006 112.097C27.1793 112.097 28.228 112.361 29.152 112.889C30.0907 113.432 30.824 114.165 31.352 115.089C31.8947 116.028 32.166 117.084 32.166 118.257C32.166 119.431 31.8947 120.479 31.352 121.403C30.824 122.327 30.0907 123.053 29.152 123.581C28.228 124.124 27.1793 124.395 26.006 124.395C24.8473 124.395 23.7987 124.124 22.86 123.581C21.936 123.053 21.2027 122.327 20.66 121.403C20.132 120.479 19.868 119.431 19.868 118.257ZM21.1 118.257C21.1 119.181 21.3127 120.003 21.738 120.721C22.178 121.455 22.7647 122.027 23.498 122.437C24.246 122.863 25.0893 123.075 26.028 123.075C26.952 123.075 27.7807 122.863 28.514 122.437C29.262 122.027 29.8487 121.455 30.274 120.721C30.714 120.003 30.934 119.181 30.934 118.257C30.934 117.348 30.714 116.527 30.274 115.793C29.8487 115.06 29.262 114.481 28.514 114.055C27.7807 113.63 26.9447 113.417 26.006 113.417C25.082 113.417 24.246 113.63 23.498 114.055C22.7647 114.481 22.178 115.06 21.738 115.793C21.3127 116.527 21.1 117.348 21.1 118.257ZM23.762 128.569L24.642 127.777L31.968 135.829C32.0853 135.976 32.144 136.115 32.144 136.247C32.144 136.394 32.0707 136.533 31.924 136.665C31.7773 136.797 31.6307 136.863 31.484 136.863C31.3373 136.863 31.2053 136.79 31.088 136.643L23.762 128.569ZM20 128.349C20 128.158 20.0587 127.997 20.176 127.865C20.308 127.748 20.4693 127.689 20.66 127.689L36.522 127.689C36.7273 127.689 36.8887 127.748 37.006 127.865C37.1233 127.997 37.182 128.158 37.182 128.349C37.182 128.554 37.1233 128.716 37.006 128.833C36.8887 128.95 36.7273 129.009 36.522 129.009L20.66 129.009C20.4693 129.009 20.308 128.95 20.176 128.833C20.0587 128.716 20 128.554 20 128.349ZM20.11 136.687C19.978 136.54 19.9267 136.386 19.956 136.225C19.9707 136.078 20.0513 135.946 20.198 135.829L26.578 130.615L27.348 131.561L20.968 136.775C20.8213 136.892 20.6747 136.944 20.528 136.929C20.3813 136.929 20.242 136.848 20.11 136.687ZM19.868 144.414C19.868 143.651 20.0073 142.852 20.286 142.016C20.5647 141.18 21.034 140.483 21.694 139.926C21.8407 139.808 21.9947 139.757 22.156 139.772C22.332 139.801 22.4787 139.896 22.596 140.058C22.6987 140.204 22.7353 140.358 22.706 140.52C22.6767 140.696 22.596 140.835 22.464 140.938C21.9653 141.363 21.6133 141.876 21.408 142.478C21.2173 143.094 21.122 143.761 21.122 144.48C21.122 145.712 21.342 146.584 21.782 147.098C22.222 147.611 22.7353 147.868 23.322 147.868C23.894 147.868 24.3633 147.589 24.73 147.032C25.1113 146.489 25.3827 145.646 25.544 144.502C25.7493 143.035 26.1453 141.95 26.732 141.246C27.3187 140.542 28.0007 140.19 28.778 140.19C29.5113 140.19 30.1273 140.373 30.626 140.74C31.1393 141.106 31.5207 141.605 31.77 142.236C32.034 142.881 32.166 143.614 32.166 144.436C32.166 145.433 31.9827 146.276 31.616 146.966C31.264 147.655 30.7873 148.212 30.186 148.638C30.0393 148.755 29.878 148.792 29.702 148.748C29.5407 148.718 29.4087 148.608 29.306 148.418C29.2327 148.271 29.2107 148.117 29.24 147.956C29.2693 147.794 29.3573 147.655 29.504 147.538C29.9733 147.171 30.3253 146.724 30.56 146.196C30.8093 145.682 30.934 145.081 30.934 144.392C30.934 143.468 30.736 142.749 30.34 142.236C29.944 141.722 29.4673 141.466 28.91 141.466C28.5287 141.466 28.1913 141.568 27.898 141.774C27.6193 141.994 27.3773 142.346 27.172 142.83C26.9813 143.314 26.8273 143.959 26.71 144.766C26.5633 145.866 26.314 146.731 25.962 147.362C25.61 148.007 25.1993 148.462 24.73 148.726C24.2753 149.004 23.784 149.144 23.256 149.144C22.5667 149.144 21.9653 148.924 21.452 148.484C20.9387 148.044 20.5427 147.464 20.264 146.746C20 146.027 19.868 145.25 19.868 144.414Z" fill="white"/>
<path fill-rule="evenodd" clip-rule="evenodd" d="M56 218C54.8954 218 54 217.105 54 216L54 192C54 190.895 54.8954 190 56 190L66 190L66 218L56 218ZM68 218L68 190L94 190L94 218L68 218ZM96 218L203 218C204.105 218 205 217.105 205 216L205 192C205 190.895 204.105 190 203 190L96 190L96 218Z" fill="url(#paint4_linear_437_685)"/>
<path d="M110.86 210C110.669 210 110.508 209.941 110.376 209.824C110.259 209.692 110.2 209.531 110.2 209.34V193.478C110.2 193.287 110.259 193.133 110.376 193.016C110.508 192.884 110.669 192.818 110.86 192.818C111.153 192.818 111.351 192.928 111.454 193.148L119.242 208.526H118.472L126.15 193.148C126.282 192.928 126.48 192.818 126.744 192.818C126.935 192.818 127.089 192.884 127.206 193.016C127.323 193.133 127.382 193.287 127.382 193.478V209.34C127.382 209.531 127.323 209.692 127.206 209.824C127.089 209.941 126.935 210 126.744 210C126.553 210 126.392 209.941 126.26 209.824C126.128 209.692 126.062 209.531 126.062 209.34V195.062L126.392 195.172L119.374 209.472C119.271 209.677 119.081 209.78 118.802 209.78C118.538 209.78 118.333 209.641 118.186 209.362L111.08 195.172L111.52 195.062V209.34C111.52 209.531 111.454 209.692 111.322 209.824C111.205 209.941 111.051 210 110.86 210ZM137.072 210.132C135.898 210.132 134.842 209.868 133.904 209.34C132.98 208.797 132.246 208.064 131.704 207.14C131.176 206.201 130.912 205.153 130.912 203.994C130.912 202.821 131.176 201.772 131.704 200.848C132.246 199.909 132.98 199.176 133.904 198.648C134.842 198.105 135.898 197.834 137.072 197.834C138.245 197.834 139.294 198.105 140.218 198.648C141.142 199.176 141.868 199.909 142.396 200.848C142.938 201.772 143.21 202.821 143.21 203.994L142.66 204.874C142.66 205.871 142.41 206.766 141.912 207.558C141.428 208.35 140.768 208.981 139.932 209.45C139.096 209.905 138.142 210.132 137.072 210.132ZM137.072 208.9C137.996 208.9 138.817 208.687 139.536 208.262C140.269 207.822 140.841 207.235 141.252 206.502C141.677 205.754 141.89 204.918 141.89 203.994C141.89 203.055 141.677 202.219 141.252 201.486C140.841 200.738 140.269 200.151 139.536 199.726C138.817 199.286 137.996 199.066 137.072 199.066C136.162 199.066 135.341 199.286 134.608 199.726C133.874 200.151 133.295 200.738 132.87 201.486C132.444 202.219 132.232 203.055 132.232 203.994C132.232 204.918 132.444 205.754 132.87 206.502C133.295 207.235 133.874 207.822 134.608 208.262C135.341 208.687 136.162 208.9 137.072 208.9ZM142.55 210C142.359 210 142.198 209.941 142.066 209.824C141.948 209.692 141.89 209.531 141.89 209.34V205.314L142.308 203.994H143.21V209.34C143.21 209.531 143.151 209.692 143.034 209.824C142.916 209.941 142.755 210 142.55 210ZM156.909 210C156.719 210 156.557 209.941 156.425 209.824C156.308 209.692 156.249 209.531 156.249 209.34V203.422C156.249 202.454 156.059 201.655 155.677 201.024C155.311 200.393 154.805 199.924 154.159 199.616C153.529 199.293 152.81 199.132 152.003 199.132C151.211 199.132 150.5 199.286 149.869 199.594C149.239 199.887 148.74 200.298 148.373 200.826C148.007 201.354 147.823 201.948 147.823 202.608H146.723C146.782 201.699 147.053 200.885 147.537 200.166C148.021 199.433 148.652 198.861 149.429 198.45C150.207 198.025 151.065 197.812 152.003 197.812C153.059 197.812 154.005 198.032 154.841 198.472C155.692 198.897 156.359 199.528 156.843 200.364C157.327 201.185 157.569 202.205 157.569 203.422V209.34C157.569 209.531 157.503 209.692 157.371 209.824C157.254 209.941 157.1 210 156.909 210ZM147.163 210C146.973 210 146.811 209.941 146.679 209.824C146.562 209.692 146.503 209.531 146.503 209.34V198.626C146.503 198.421 146.562 198.259 146.679 198.142C146.811 198.025 146.973 197.966 147.163 197.966C147.369 197.966 147.53 198.025 147.647 198.142C147.765 198.259 147.823 198.421 147.823 198.626V209.34C147.823 209.531 147.765 209.692 147.647 209.824C147.53 209.941 147.369 210 147.163 210ZM166.806 210.132C165.604 210.132 164.54 209.868 163.616 209.34C162.692 208.812 161.966 208.086 161.438 207.162C160.91 206.238 160.646 205.182 160.646 203.994C160.646 202.791 160.918 201.728 161.46 200.804C162.003 199.88 162.736 199.154 163.66 198.626C164.599 198.098 165.648 197.834 166.806 197.834C168.009 197.834 169.065 198.098 169.974 198.626C170.898 199.154 171.624 199.88 172.152 200.804C172.68 201.728 172.944 202.791 172.944 203.994L172.174 204.874C172.174 205.901 171.947 206.81 171.492 207.602C171.038 208.394 170.407 209.017 169.6 209.472C168.794 209.912 167.862 210.132 166.806 210.132ZM166.894 214.598C165.677 214.598 164.636 214.371 163.77 213.916C162.92 213.461 162.216 212.882 161.658 212.178C161.541 212.031 161.482 211.877 161.482 211.716C161.482 211.555 161.556 211.423 161.702 211.32C161.849 211.203 162.018 211.159 162.208 211.188C162.414 211.217 162.568 211.313 162.67 211.474C163.125 212.017 163.704 212.464 164.408 212.816C165.112 213.183 165.941 213.366 166.894 213.366C167.804 213.366 168.61 213.146 169.314 212.706C170.033 212.266 170.598 211.657 171.008 210.88C171.419 210.117 171.624 209.259 171.624 208.306V204.808L172.218 203.994H172.944V208.306C172.944 209.494 172.68 210.565 172.152 211.518C171.624 212.471 170.906 213.219 169.996 213.762C169.087 214.319 168.053 214.598 166.894 214.598ZM166.806 208.9C167.745 208.9 168.574 208.695 169.292 208.284C170.026 207.859 170.598 207.279 171.008 206.546C171.419 205.798 171.624 204.947 171.624 203.994C171.624 203.026 171.419 202.175 171.008 201.442C170.598 200.694 170.026 200.115 169.292 199.704C168.574 199.279 167.745 199.066 166.806 199.066C165.868 199.066 165.032 199.279 164.298 199.704C163.565 200.115 162.993 200.694 162.582 201.442C162.172 202.175 161.966 203.026 161.966 203.994C161.966 204.947 162.172 205.798 162.582 206.546C162.993 207.279 163.565 207.859 164.298 208.284C165.032 208.695 165.868 208.9 166.806 208.9ZM181.738 210.132C180.564 210.132 179.508 209.868 178.57 209.34C177.646 208.797 176.912 208.064 176.37 207.14C175.842 206.201 175.578 205.153 175.578 203.994C175.578 202.821 175.842 201.772 176.37 200.848C176.912 199.909 177.646 199.176 178.57 198.648C179.508 198.105 180.564 197.834 181.738 197.834C182.911 197.834 183.96 198.105 184.884 198.648C185.808 199.176 186.534 199.909 187.062 200.848C187.604 201.772 187.876 202.821 187.876 203.994L187.326 204.874C187.326 205.871 187.076 206.766 186.578 207.558C186.094 208.35 185.434 208.981 184.598 209.45C183.762 209.905 182.808 210.132 181.738 210.132ZM181.738 208.9C182.662 208.9 183.483 208.687 184.202 208.262C184.935 207.822 185.507 207.235 185.918 206.502C186.343 205.754 186.556 204.918 186.556 203.994C186.556 203.055 186.343 202.219 185.918 201.486C185.507 200.738 184.935 200.151 184.202 199.726C183.483 199.286 182.662 199.066 181.738 199.066C180.828 199.066 180.007 199.286 179.274 199.726C178.54 200.151 177.961 200.738 177.536 201.486C177.11 202.219 176.898 203.055 176.898 203.994C176.898 204.918 177.11 205.754 177.536 206.502C177.961 207.235 178.54 207.822 179.274 208.262C180.007 208.687 180.828 208.9 181.738 208.9ZM187.216 210C187.025 210 186.864 209.941 186.732 209.824C186.614 209.692 186.556 209.531 186.556 209.34V205.314L186.974 203.994H187.876V209.34C187.876 209.531 187.817 209.692 187.7 209.824C187.582 209.941 187.421 210 187.216 210Z" fill="white"/>
<rect x="54" y="187" width="110" height="98" transform="rotate(-90 54 187)" fill="#1B1C22"/>
<rect x="56" y="187" width="13" height="94" transform="rotate(-90 56 187)" fill="#0B0B0F"/>
<path d="M140.907 99.9344C146.012 107.343 149 116.323 149 126C149 151.405 128.405 172 103 172C93.361 172 84.4145 169.035 77.0225 163.968L97.1596 135.323C98.852 136.386 100.854 137 103 137C109.075 137 114 132.075 114 126C114 123.739 113.318 121.638 112.149 119.891L140.907 99.9344Z" fill="url(#paint5_linear_437_685)"/>
<path d="M140.331 99.1171L111.555 119.085C111.314 118.786 111.056 118.501 110.785 118.229L135.756 93.7037C137.415 95.3863 138.945 97.1961 140.331 99.1171Z" fill="url(#paint6_linear_437_685)"/>
<path d="M135.048 93.0009L110.263 117.739C110.051 117.552 109.832 117.374 109.607 117.204L129.318 88.2675C131.355 89.6907 133.271 91.2747 135.048 93.0009Z" fill="url(#paint7_linear_437_685)"/>
<path d="M128.402 87.6441L108.779 116.638C107.099 115.6 105.12 115 103 115C96.9249 115 92 119.925 92 126C92 128.026 92.5475 129.923 93.5025 131.553L64.6434 151.401C59.8135 144.123 57 135.39 57 126C57 100.595 77.5949 80 103 80C112.39 80 121.124 82.8137 128.402 87.6441Z" fill="url(#paint8_linear_437_685)"/>
<path fill-rule="evenodd" clip-rule="evenodd" d="M94.8712 131.826C95.0586 132.087 95.2583 132.338 95.4694 132.58C95.4854 132.598 95.5015 132.616 95.5176 132.634C95.7229 132.866 95.9388 133.088 96.1644 133.299C96.4033 133.523 96.6532 133.735 96.9132 133.935C96.9158 133.937 96.9184 133.939 96.921 133.941C97.1827 134.141 97.4545 134.329 97.7356 134.504C99.2646 135.452 101.068 136 103 136C108.523 136 113 131.523 113 126C113 123.951 112.384 122.047 111.327 120.461C111.316 120.444 111.304 120.426 111.292 120.409C111.117 120.149 110.93 119.899 110.731 119.657C110.523 119.404 110.303 119.161 110.072 118.93L110 119L109.5 118.5L109.554 118.447C109.388 118.303 109.218 118.165 109.043 118.032C109.023 118.017 109.003 118.002 108.983 117.987C108.737 117.802 108.481 117.629 108.218 117.467C106.699 116.537 104.912 116 103 116C97.4772 116 93 120.477 93 126C93 127.815 93.4836 129.517 94.329 130.985C94.3477 131.017 94.3666 131.05 94.3857 131.082C94.5367 131.337 94.6988 131.585 94.8712 131.826ZM107.091 126C107.091 123.741 105.259 121.909 103 121.909C100.741 121.909 98.9091 123.741 98.9091 126C98.9091 128.259 100.741 130.091 103 130.091C105.259 130.091 107.091 128.259 107.091 126Z" fill="url(#paint9_linear_437_685)"/>
<path d="M96.3416 134.757C96.0312 134.52 95.7337 134.268 95.4504 134L70.4773 158.531C72.2908 160.344 74.255 162.006 76.3494 163.498L96.3416 134.757Z" fill="url(#paint10_linear_437_685)"/>
<path d="M65.2661 152.316C66.6832 154.344 68.2597 156.253 69.9774 158.024L94.7602 133.288C94.5081 133.003 94.2706 132.705 94.0487 132.395L65.2661 152.316Z" fill="url(#paint11_linear_437_685)"/>
<path d="M135.048 93.001L110.263 117.739C110.051 117.552 109.832 117.374 109.607 117.204L129.318 88.2675C131.354 89.6908 133.271 91.2747 135.048 93.001Z" fill="url(#paint12_linear_437_685)"/>
<path d="M140.331 99.1171L111.555 119.085C111.314 118.786 111.056 118.501 110.785 118.229L135.756 93.7037C137.415 95.3863 138.945 97.1961 140.331 99.1171Z" fill="url(#paint13_linear_437_685)"/>
<path d="M96.3416 134.757C96.0312 134.52 95.7337 134.268 95.4504 134L70.4773 158.531C72.2908 160.344 74.2549 162.006 76.3494 163.498L96.3416 134.757Z" fill="url(#paint14_linear_437_685)"/>
<path d="M65.2661 152.316C66.6832 154.344 68.2597 156.253 69.9774 158.024L94.7602 133.288C94.5081 133.003 94.2706 132.705 94.0487 132.395L65.2661 152.316Z" fill="url(#paint15_linear_437_685)"/>
<path d="M110.115 167.814C110.007 167.972 109.868 168.072 109.696 168.114C109.521 168.136 109.355 168.094 109.197 167.986L96.1126 159.02C95.9553 158.912 95.8615 158.777 95.831 158.613C95.7967 158.43 95.8335 158.26 95.9412 158.102C96.107 157.86 96.3097 157.759 96.5492 157.799L113.637 160.067L113.202 160.702L104.856 145.676C104.749 145.443 104.77 145.217 104.92 144.999C105.027 144.842 105.169 144.752 105.344 144.73C105.507 144.7 105.668 144.738 105.825 144.846L118.91 153.812C119.067 153.92 119.167 154.059 119.209 154.231C119.24 154.394 119.201 154.554 119.093 154.711C118.986 154.869 118.846 154.969 118.675 155.011C118.491 155.046 118.321 155.009 118.164 154.901L106.385 146.83L106.663 146.62L114.492 160.493C114.603 160.693 114.58 160.909 114.423 161.139C114.274 161.356 114.043 161.447 113.73 161.41L98.0075 159.251L98.1654 158.826L109.944 166.897C110.101 167.005 110.197 167.15 110.231 167.334C110.261 167.497 110.223 167.657 110.115 167.814ZM124.971 146.406C124.374 147.277 123.664 147.937 122.841 148.386C122.005 148.827 121.102 149.017 120.13 148.956C119.167 148.883 118.189 148.506 117.197 147.826L112.315 144.481C112.158 144.373 112.064 144.238 112.034 144.075C112 143.891 112.036 143.721 112.144 143.564C112.252 143.406 112.393 143.317 112.569 143.295C112.74 143.252 112.904 143.285 113.062 143.392L117.943 146.737C118.73 147.276 119.493 147.577 120.232 147.639C120.968 147.681 121.647 147.533 122.27 147.195C122.889 146.837 123.426 146.325 123.882 145.66C124.33 145.006 124.605 144.333 124.708 143.638C124.81 142.944 124.753 142.3 124.537 141.708C124.309 141.107 123.922 140.62 123.378 140.247L123.999 139.339C124.716 139.902 125.241 140.59 125.572 141.404C125.891 142.209 126.007 143.053 125.918 143.934C125.826 144.796 125.51 145.62 124.971 146.406ZM127.58 142.326C127.472 142.484 127.333 142.584 127.161 142.626C126.986 142.648 126.82 142.605 126.663 142.498L117.824 136.442C117.655 136.326 117.555 136.186 117.525 136.023C117.502 135.848 117.545 135.681 117.653 135.524C117.769 135.355 117.909 135.255 118.072 135.224C118.235 135.194 118.401 135.237 118.571 135.353L127.409 141.409C127.566 141.517 127.666 141.656 127.708 141.828C127.739 141.991 127.696 142.157 127.58 142.326ZM132.612 135.217C132.18 135.846 131.614 136.427 130.911 136.959C130.209 137.491 129.428 137.8 128.568 137.887C128.381 137.901 128.225 137.856 128.1 137.753C127.972 137.629 127.905 137.468 127.899 137.268C127.897 137.089 127.954 136.941 128.069 136.825C128.193 136.696 128.338 136.627 128.505 136.617C129.157 136.548 129.738 136.323 130.247 135.943C130.752 135.543 131.208 135.047 131.614 134.454C132.311 133.437 132.623 132.593 132.55 131.921C132.477 131.249 132.199 130.747 131.715 130.415C131.243 130.092 130.698 130.057 130.081 130.309C129.459 130.541 128.759 131.083 127.979 131.936C126.981 133.03 126.041 133.701 125.159 133.95C124.277 134.2 123.515 134.104 122.874 133.665C122.269 133.25 121.864 132.751 121.66 132.167C121.444 131.574 121.411 130.947 121.562 130.286C121.709 129.604 122.015 128.925 122.479 128.247C123.043 127.425 123.671 126.833 124.363 126.471C125.043 126.101 125.751 125.911 126.488 125.9C126.675 125.886 126.829 125.947 126.949 126.083C127.066 126.198 127.112 126.364 127.089 126.579C127.067 126.742 126.998 126.881 126.883 126.998C126.767 127.114 126.616 127.179 126.429 127.193C125.834 127.23 125.291 127.4 124.799 127.703C124.303 127.986 123.86 128.411 123.471 128.98C122.948 129.742 122.705 130.447 122.742 131.094C122.778 131.742 123.027 132.223 123.486 132.538C123.801 132.753 124.137 132.859 124.495 132.856C124.849 132.832 125.248 132.678 125.691 132.395C126.122 132.104 126.614 131.658 127.166 131.059C127.909 130.235 128.604 129.662 129.251 129.34C129.906 129.007 130.502 128.864 131.038 128.912C131.571 128.939 132.055 129.102 132.49 129.4C133.059 129.79 133.431 130.311 133.605 130.964C133.78 131.617 133.779 132.319 133.603 133.069C133.415 133.811 133.084 134.527 132.612 135.217ZM137.479 127.881C137.371 128.038 137.231 128.138 137.06 128.18C136.885 128.203 136.718 128.16 136.561 128.052L127.723 121.996C127.553 121.88 127.454 121.74 127.423 121.577C127.401 121.402 127.444 121.236 127.552 121.078C127.668 120.909 127.807 120.809 127.97 120.779C128.133 120.748 128.3 120.791 128.469 120.907L137.307 126.963C137.464 127.071 137.564 127.21 137.607 127.382C137.637 127.545 137.595 127.711 137.479 127.881ZM125.452 119.666C125.295 119.896 125.079 120.042 124.806 120.104C124.529 120.145 124.269 120.083 124.027 119.917C123.749 119.726 123.601 119.5 123.584 119.24C123.563 118.959 123.627 118.71 123.777 118.492C123.918 118.286 124.119 118.148 124.38 118.078C124.637 117.988 124.905 118.038 125.184 118.229C125.426 118.395 125.573 118.62 125.626 118.906C125.676 119.171 125.618 119.424 125.452 119.666ZM143.46 119.384C142.814 120.328 142.01 121.022 141.048 121.465C140.095 121.896 139.088 122.069 138.027 121.982C136.975 121.883 135.97 121.506 135.015 120.851C134.047 120.188 133.318 119.396 132.83 118.474C132.341 117.552 132.119 116.592 132.165 115.591C132.198 114.583 132.525 113.625 133.147 112.718C133.678 111.943 134.314 111.339 135.056 110.905C135.786 110.463 136.615 110.213 137.543 110.156C137.73 110.142 137.882 110.193 137.999 110.308C138.115 110.423 138.17 110.577 138.164 110.768C138.174 110.935 138.127 111.08 138.024 111.205C137.908 111.322 137.757 111.387 137.57 111.401C136.12 111.545 134.984 112.216 134.164 113.414C133.674 114.128 133.419 114.877 133.397 115.662C133.383 116.435 133.574 117.18 133.972 117.897C134.378 118.601 134.974 119.223 135.761 119.762C136.523 120.285 137.325 120.594 138.165 120.69C138.994 120.778 139.785 120.662 140.537 120.342C141.286 120.001 141.922 119.45 142.444 118.688C142.784 118.192 143.031 117.676 143.184 117.141C143.345 116.594 143.387 116.054 143.308 115.52C143.286 115.345 143.315 115.186 143.394 115.045C143.473 114.903 143.594 114.818 143.757 114.787C143.949 114.741 144.117 114.767 144.262 114.867C144.404 114.946 144.486 115.073 144.508 115.248C144.713 116.687 144.364 118.066 143.46 119.384Z" fill="white"/>
<mask id="path-13-inside-1_437_685" fill="white">
<path fill-rule="evenodd" clip-rule="evenodd" d="M211 25C209.895 25 209 25.8954 209 27L209 216C209 217.105 209.895 218 211 218L233 218C234.105 218 235 217.105 235 216L235 27C235 25.8954 234.105 25 233 25L211 25Z"/>
</mask>
<path fill-rule="evenodd" clip-rule="evenodd" d="M211 25C209.895 25 209 25.8954 209 27L209 216C209 217.105 209.895 218 211 218L233 218C234.105 218 235 217.105 235 216L235 27C235 25.8954 234.105 25 233 25L211 25Z" fill="#333333"/>
<path d="M222 218L222 26L221 26L221 218L222 218ZM233 25L233 24L233 25ZM209 27L210 27L209 27ZM211 25L211 26L211 25ZM209 216L208 216L209 216ZM210 216L210 27L208 27L208 216L210 216ZM233 217L211 217L211 219L233 219L233 217ZM234 27L234 216L236 216L236 27L234 27ZM211 26L233 26L233 24L211 24L211 26ZM236 27C236 25.3431 234.657 24 233 24L233 26C233.552 26 234 26.4477 234 27L236 27ZM233 219C234.657 219 236 217.657 236 216L234 216C234 216.552 233.552 217 233 217L233 219ZM210 27C210 26.4477 210.448 26 211 26L211 24C209.343 24 208 25.3431 208 27L210 27ZM208 216C208 217.657 209.343 219 211 219L211 217C210.448 217 210 216.552 210 216L208 216Z" fill="black" mask="url(#path-13-inside-1_437_685)"/>
<rect x="213" y="172" width="136" height="18" rx="2" transform="rotate(-90 213 172)" fill="url(#paint16_linear_437_685)"/>
<path d="M227 129.05C227 129.18 226.96 129.29 226.88 129.38C226.79 129.46 226.68 129.5 226.55 129.5L215.735 129.5C215.605 129.5 215.5 129.46 215.42 129.38C215.33 129.29 215.285 129.18 215.285 129.05C215.285 128.85 215.36 128.715 215.51 128.645L225.995 123.335L225.995 123.86L215.51 118.625C215.36 118.535 215.285 118.4 215.285 118.22C215.285 118.09 215.33 117.985 215.42 117.905C215.5 117.825 215.605 117.785 215.735 117.785L226.55 117.785C226.68 117.785 226.79 117.825 226.88 117.905C226.96 117.985 227 118.09 227 118.22C227 118.35 226.96 118.46 226.88 118.55C226.79 118.64 226.68 118.685 226.55 118.685L216.815 118.685L216.89 118.46L226.64 123.245C226.78 123.315 226.85 123.445 226.85 123.635C226.85 123.815 226.755 123.955 226.565 124.055L216.89 128.9L216.815 128.6L226.55 128.6C226.68 128.6 226.79 128.645 226.88 128.735C226.96 128.815 227 128.92 227 129.05ZM227.09 111.178C227.09 111.978 226.91 112.698 226.55 113.338C226.18 113.968 225.68 114.468 225.05 114.838C224.41 115.198 223.695 115.378 222.905 115.378C222.105 115.378 221.39 115.198 220.76 114.838C220.12 114.468 219.62 113.968 219.26 113.338C218.89 112.698 218.705 111.978 218.705 111.178C218.705 110.378 218.89 109.663 219.26 109.033C219.62 108.403 220.12 107.908 220.76 107.548C221.39 107.178 222.105 106.993 222.905 106.993C223.695 106.993 224.41 107.178 225.05 107.548C225.68 107.908 226.18 108.403 226.55 109.033C226.91 109.663 227.09 110.378 227.09 111.178ZM226.25 111.178C226.25 110.548 226.105 109.988 225.815 109.498C225.515 108.998 225.115 108.608 224.615 108.328C224.105 108.038 223.53 107.893 222.89 107.893C222.26 107.893 221.695 108.038 221.195 108.328C220.685 108.608 220.285 108.998 219.995 109.498C219.695 109.988 219.545 110.548 219.545 111.178C219.545 111.798 219.695 112.358 219.995 112.858C220.285 113.358 220.685 113.753 221.195 114.043C221.695 114.333 222.265 114.478 222.905 114.478C223.535 114.478 224.105 114.333 224.615 114.043C225.115 113.753 225.515 113.358 225.815 112.858C226.105 112.358 226.25 111.798 226.25 111.178ZM227.015 102.382C227.015 102.572 226.91 102.712 226.7 102.802L219.38 106.222C219.27 106.262 219.165 106.262 219.065 106.222C218.955 106.182 218.875 106.107 218.825 105.997C218.775 105.887 218.77 105.782 218.81 105.682C218.85 105.572 218.925 105.492 219.035 105.442L226.295 102.082L226.295 102.637L219.02 99.3368C218.91 99.2868 218.835 99.2068 218.795 99.0968C218.755 98.9768 218.76 98.8618 218.81 98.7518C218.86 98.6418 218.94 98.5668 219.05 98.5268C219.15 98.4768 219.255 98.4768 219.365 98.5268L226.7 101.902C226.91 102.002 227.015 102.162 227.015 102.382ZM227 96.1021C227 96.2321 226.96 96.3421 226.88 96.4321C226.79 96.5121 226.68 96.5521 226.55 96.5521L219.245 96.5521C219.105 96.5521 218.995 96.5121 218.915 96.4321C218.835 96.3421 218.795 96.2321 218.795 96.1021C218.795 95.9621 218.835 95.8521 218.915 95.7721C218.995 95.6921 219.105 95.6521 219.245 95.6521L226.55 95.6521C226.68 95.6521 226.79 95.6921 226.88 95.7721C226.96 95.8521 227 95.9621 227 96.1021ZM217.07 96.1171C217.07 96.3071 217.005 96.4721 216.875 96.6121C216.735 96.7421 216.565 96.8071 216.365 96.8071C216.135 96.8071 215.965 96.7371 215.855 96.5971C215.735 96.4471 215.675 96.2821 215.675 96.1021C215.675 95.9321 215.735 95.7771 215.855 95.6371C215.965 95.4871 216.135 95.4121 216.365 95.4121C216.565 95.4121 216.735 95.4821 216.875 95.6221C217.005 95.7521 217.07 95.9171 217.07 96.1171ZM227.075 89.018C227.075 89.808 226.9 90.513 226.55 91.133C226.19 91.743 225.695 92.223 225.065 92.573C224.435 92.923 223.715 93.098 222.905 93.098C222.085 93.098 221.365 92.933 220.745 92.603C220.115 92.273 219.62 91.818 219.26 91.238C218.9 90.658 218.72 89.993 218.72 89.243C218.72 88.503 218.895 87.848 219.245 87.278C219.585 86.708 220.06 86.263 220.67 85.943C221.27 85.623 221.965 85.463 222.755 85.463C222.885 85.463 222.99 85.503 223.07 85.583C223.14 85.663 223.175 85.768 223.175 85.898L223.175 92.498L222.395 92.498L222.395 85.658L222.89 86.318C222.24 86.298 221.665 86.408 221.165 86.648C220.665 86.888 220.275 87.233 219.995 87.683C219.705 88.123 219.56 88.643 219.56 89.243C219.56 89.813 219.705 90.323 219.995 90.773C220.275 91.213 220.665 91.563 221.165 91.823C221.665 92.073 222.245 92.198 222.905 92.198C223.555 92.198 224.13 92.063 224.63 91.793C225.13 91.523 225.525 91.148 225.815 90.668C226.095 90.188 226.235 89.638 226.235 89.018C226.235 88.628 226.17 88.238 226.04 87.848C225.9 87.448 225.72 87.133 225.5 86.903C225.42 86.823 225.38 86.728 225.38 86.618C225.37 86.498 225.4 86.398 225.47 86.318C225.56 86.208 225.66 86.153 225.77 86.153C225.88 86.143 225.98 86.188 226.07 86.288C226.36 86.608 226.6 87.028 226.79 87.548C226.98 88.058 227.075 88.548 227.075 89.018ZM227.09 80.7174C227.09 81.2374 226.995 81.7824 226.805 82.3524C226.615 82.9224 226.295 83.3974 225.845 83.7774C225.745 83.8574 225.64 83.8924 225.53 83.8824C225.41 83.8624 225.31 83.7974 225.23 83.6874C225.16 83.5874 225.135 83.4824 225.155 83.3724C225.175 83.2524 225.23 83.1574 225.32 83.0874C225.66 82.7974 225.9 82.4474 226.04 82.0374C226.17 81.6174 226.235 81.1624 226.235 80.6724C226.235 79.8324 226.085 79.2374 225.785 78.8874C225.485 78.5374 225.135 78.3624 224.735 78.3624C224.345 78.3624 224.025 78.5524 223.775 78.9324C223.515 79.3024 223.33 79.8774 223.22 80.6574C223.08 81.6574 222.81 82.3974 222.41 82.8774C222.01 83.3574 221.545 83.5974 221.015 83.5974C220.515 83.5974 220.095 83.4724 219.755 83.2224C219.405 82.9724 219.145 82.6324 218.975 82.2024C218.795 81.7624 218.705 81.2624 218.705 80.7024C218.705 80.0224 218.83 79.4474 219.08 78.9774C219.32 78.5074 219.645 78.1274 220.055 77.8374C220.155 77.7574 220.265 77.7324 220.385 77.7624C220.495 77.7824 220.585 77.8574 220.655 77.9874C220.705 78.0874 220.72 78.1924 220.7 78.3024C220.68 78.4124 220.62 78.5074 220.52 78.5874C220.2 78.8374 219.96 79.1424 219.8 79.5024C219.63 79.8524 219.545 80.2624 219.545 80.7324C219.545 81.3624 219.68 81.8524 219.95 82.2024C220.22 82.5524 220.545 82.7274 220.925 82.7274C221.185 82.7274 221.415 82.6574 221.615 82.5174C221.805 82.3674 221.97 82.1274 222.11 81.7974C222.24 81.4674 222.345 81.0274 222.425 80.4774C222.525 79.7274 222.695 79.1374 222.935 78.7074C223.175 78.2674 223.455 77.9574 223.775 77.7774C224.085 77.5874 224.42 77.4924 224.78 77.4924C225.25 77.4924 225.66 77.6424 226.01 77.9424C226.36 78.2424 226.63 78.6374 226.82 79.1274C227 79.6174 227.09 80.1474 227.09 80.7174Z" fill="black"/>
<path fill-rule="evenodd" clip-rule="evenodd" d="M180.5 117.6C181.881 117.6 183 116.123 183 114.3C183 113.376 182.712 112.54 182.248 111.941C181.909 111.503 181.476 111.191 180.992 111.064C180.833 111.022 180.669 111 180.5 111C180.331 111 180.167 111.022 180.008 111.064C179.569 111.18 179.171 111.447 178.848 111.823C178.328 112.427 178 113.313 178 114.3C178 116.123 179.119 117.6 180.5 117.6ZM179.5 112.5C179 113.5 179 114.423 179 114.449C179 115.802 179.672 116.898 180.5 116.898C181.328 116.898 182 115.802 182 114.449C182 114.423 182 114.397 181.999 114.372C182 114.348 182 114.324 182 114.3C182 113.587 181.78 112.978 181.471 112.57C181.362 112.427 181.248 112.314 181.132 112.227C180.94 112.081 180.726 112 180.5 112" fill="url(#paint17_linear_437_685)"/>
<path fill-rule="evenodd" clip-rule="evenodd" d="M180.5 125.3C181.881 125.3 183 123.823 183 122C183 120.177 181.881 118.7 180.5 118.7C179.119 118.7 178 120.177 178 122C178 123.823 179.119 125.3 180.5 125.3ZM179 122.024C179 122.033 179 122.042 179 122.051C179 123.403 179.672 124.5 180.5 124.5C181.328 124.5 182 123.403 182 122.051C182 122.042 182 122.033 182 122.025C182 122.016 182 122.008 182 122C182 121.798 181.982 121.605 181.95 121.422C181.78 120.374 181.195 119.602 180.5 119.602C179.805 119.602 179.22 120.374 179.05 121.423C179.018 121.605 179 121.798 179 122C179 122.008 179 122.016 179 122.024Z" fill="url(#paint18_linear_437_685)"/>
<path fill-rule="evenodd" clip-rule="evenodd" d="M183 129.7C183 131.523 181.881 133 180.5 133C179.119 133 178 131.523 178 129.7C178 127.877 179.119 126.4 180.5 126.4C181.881 126.4 183 127.877 183 129.7ZM181.801 128.576C181.543 127.832 181.054 127.33 180.494 127.33C179.665 127.33 178.994 128.426 178.994 129.779C178.994 131.131 179.665 132.228 180.494 132.228C181.281 132.228 181.927 131.237 181.989 129.978C181.996 129.887 182 129.795 182 129.7C182 129.283 181.925 128.902 181.801 128.576Z" fill="url(#paint19_linear_437_685)"/>
<path d="M181 118.5C181 119.881 180.776 121 180.5 121C180.224 121 180 119.881 180 118.5C180 117.119 180.224 116 180.5 116C180.776 116 181 117.119 181 118.5Z" fill="url(#paint20_linear_437_685)"/>
<path d="M181 125.5C181 126.881 180.776 128 180.5 128C180.224 128 180 126.881 180 125.5C180 124.119 180.224 123 180.5 123C180.776 123 181 124.119 181 125.5Z" fill="url(#paint21_linear_437_685)"/>
<path d="M181 111.5C181 112.881 180.776 114 180.5 114C180.224 114 180 112.881 180 111.5C180 111.351 180.003 111.206 180.008 111.064C180.009 111.029 180.01 110.994 180.012 110.96C180.061 109.839 180.261 109 180.5 109C180.742 109 180.944 109.859 180.99 111C180.991 111.021 180.992 111.043 180.992 111.064C180.997 111.206 181 111.351 181 111.5Z" fill="url(#paint22_linear_437_685)"/>
<path fill-rule="evenodd" clip-rule="evenodd" d="M180.5 136C182.985 136 185 134.881 185 133.5C185 132.119 182.985 131 180.5 131C178.015 131 176 132.119 176 133.5C176 134.881 178.015 136 180.5 136ZM180.5 135C182.433 135 184 134.328 184 133.5C184 132.672 182.433 132 180.5 132C178.567 132 177 132.672 177 133.5C177 134.328 178.567 135 180.5 135Z" fill="url(#paint23_linear_437_685)"/>
<path fill-rule="evenodd" clip-rule="evenodd" d="M180.5 167C189.613 167 197 159.613 197 150.5C197 141.387 189.613 134 180.5 134C171.387 134 164 141.387 164 150.5C164 159.613 171.387 167 180.5 167ZM180.5 166C189.06 166 196 159.06 196 150.5C196 141.94 189.06 135 180.5 135C171.94 135 165 141.94 165 150.5C165 159.06 171.94 166 180.5 166Z" fill="url(#paint24_linear_437_685)"/>
<path d="M187 110.536C186.363 110.868 185.694 111.149 185 111.373V112H187V110.536Z" fill="url(#paint25_linear_437_685)"/>
<path d="M185 110.317C185.272 110.221 185.54 110.115 185.803 110H185V110.317Z" fill="url(#paint26_linear_437_685)"/>
<path d="M173.331 177.757C172.77 177.367 171.544 175.95 171.296 175.143C171.065 174.389 171.121 172.149 171.76 171.548L171.571 171.341L171.734 171.103C171.555 171.188 171.4 171.335 171.27 171.54C170.689 172.461 170.694 174.527 170.916 175.251C171.133 175.953 171.992 177.049 172.657 177.692L173.331 177.757Z" fill="url(#paint27_linear_437_685)"/>
<path d="M171.296 175.143C171.544 175.95 172.77 177.367 173.331 177.757L172.657 177.692C172.873 177.901 173.069 178.062 173.215 178.146C173.362 178.227 173.505 178.289 173.642 178.323C173.753 178.739 173.865 179.049 173.984 179.265C174.252 179.753 176.848 182.441 178.987 183.583C179.667 183.944 180.585 184 181.072 184C181.154 184 181.213 183.998 181.242 183.997C181.272 183.998 181.33 184 181.411 184C181.899 184 182.817 183.944 183.497 183.583C185.638 182.44 188.233 179.752 188.5 179.265C188.575 179.127 188.647 178.952 188.718 178.737L188.296 178.751C188.374 178.536 188.45 178.278 188.522 177.978C188.644 177.987 188.823 177.958 189.068 177.819C189.583 177.522 190.927 175.99 191.189 175.143C191.355 174.603 191.373 173.302 191.135 172.386C191.031 172.466 190.914 172.552 190.791 172.641C190.962 173.451 190.957 174.562 190.812 175.036C190.578 175.797 189.285 177.255 188.867 177.493C188.695 177.591 188.596 177.602 188.561 177.602L188.214 177.579L188.139 177.894C187.996 178.488 187.877 178.776 187.802 178.912C187.6 179.27 185.151 181.834 183.114 182.921C182.556 183.22 181.67 183.243 181.411 183.243C181.338 183.243 181.289 183.242 181.27 183.241L181.262 183.241L181.243 183.24L181.223 183.241C181.218 183.241 181.163 183.243 181.073 183.243C180.815 183.243 179.93 183.22 179.37 182.921C177.334 181.835 174.883 179.27 174.682 178.912C174.607 178.776 174.488 178.488 174.345 177.894L174.269 177.578L173.933 177.602H173.923C173.888 177.602 173.789 177.592 173.619 177.495C173.2 177.254 171.907 175.797 171.673 175.036C171.475 174.391 171.536 172.581 171.945 171.931C171.972 171.889 171.997 171.856 172.02 171.832L171.76 171.548C171.121 172.149 171.065 174.389 171.296 175.143Z" fill="url(#paint28_linear_437_685)"/>
<path fill-rule="evenodd" clip-rule="evenodd" d="M206 167.331L194.851 173.31L200.328 174.709L191.819 177.132L194.852 178.532L188.718 178.737L188.296 178.751C188.374 178.536 188.45 178.278 188.522 177.978C188.644 177.987 188.823 177.958 189.068 177.819C189.583 177.522 190.927 175.99 191.189 175.143C191.355 174.603 191.373 173.302 191.135 172.386C191.031 172.466 190.914 172.552 190.791 172.641C189.924 173.264 188.709 174.024 188.709 174.024L189.694 172.019C189.694 172.019 188.629 172.801 188.079 173.117C188.472 172.058 189.23 169.398 189.023 168.916C188.902 168.634 188.629 168.5 188.629 168.5C188.511 169.27 186.148 172.878 184.335 174.743C184.358 174.629 184.383 174.507 184.41 174.377C184.791 172.518 185.478 169.168 184.926 166.986C182.877 167.743 179.108 172.083 177.873 174.366C177.494 172.473 177.677 168.008 177.677 168.008C177.677 168.008 176.114 168.716 175.51 169.952C175.037 171.226 175.431 173.497 175.431 173.497L173.579 171.832L173.816 173.8L172.02 171.832L171.76 171.548L171.571 171.341L171.734 171.103C171.802 171.071 171.872 171.048 171.946 171.035C172.169 170.993 172.387 171 172.585 171.053C172.598 170.534 172.676 170.025 172.814 169.533L171.734 171.103C171.555 171.188 171.4 171.335 171.27 171.54C170.689 172.461 170.694 174.527 170.916 175.251C171.133 175.953 171.992 177.049 172.657 177.692L163.693 176.828L168.459 174.178C168.459 174.178 165.583 172.211 156.995 170.621C156.995 170.621 163.968 166.647 167.947 166.307C167.947 166.307 166.765 160.895 156 155.521C159.044 153.591 164.717 150.714 167.434 150.866C172.082 151.547 176.219 155.976 176.219 155.976C176.219 155.976 177.282 152.872 174.407 145C174.965 145.147 175.522 145.285 176.074 145.422C179.222 146.202 182.164 146.931 183.713 148.88C186.589 153.27 186.185 158.209 186.185 158.209C186.185 158.209 189.021 159.003 190.281 160.214C192.35 162.202 192.566 163.734 192.566 163.734L202.651 162.977L198.121 166.875L206 167.331Z" fill="url(#paint29_linear_437_685)"/>
<path d="M171.946 171.035C172.169 170.993 172.387 171 172.585 171.053C172.598 170.534 172.676 170.025 172.814 169.533L171.734 171.103C171.802 171.071 171.872 171.048 171.946 171.035Z" fill="url(#paint30_linear_437_685)"/>
<path d="M172.693 109C173.128 109.362 173.588 109.696 174.069 110H175H176.197C175.555 109.719 174.942 109.384 174.364 109H172.693Z" fill="url(#paint31_linear_437_685)"/>
<path fill-rule="evenodd" clip-rule="evenodd" d="M187 110.536C186.363 110.868 185.694 111.149 185 111.373V110.317C185.272 110.221 185.54 110.115 185.803 110H185H176.197C175.555 109.719 174.942 109.384 174.364 109H185L187.5 108L190 106L192.128 103.5C192.69 102.11 193 100.591 193 99C193 92.3726 187.627 87 181 87C174.373 87 169 92.3726 169 99C169 103.174 171.131 106.85 174.364 109H172.693C169.825 106.615 168 103.021 168 99C168 91.8203 173.82 86 181 86C188.18 86 194 91.8203 194 99C194 104.015 191.16 108.368 187 110.536ZM175 110H174.069C173.588 109.696 173.128 109.362 172.693 109H171V110H173.5V112H175V110.536V110ZM178.848 111.823C179.548 111.939 180.267 112 181 112C181.421 112 181.837 111.98 182.248 111.941C181.909 111.503 181.476 111.191 180.992 111.064L180.99 111C180.661 111 180.334 110.986 180.012 110.96C180.01 110.994 180.009 111.029 180.008 111.064C179.569 111.18 179.171 111.447 178.848 111.823Z" fill="url(#paint32_linear_437_685)"/>
<defs>
<filter id="filter0_i_437_685" x="5" y="13.0007" width="49" height="209.001" filterUnits="userSpaceOnUse" color-interpolation-filters="sRGB">
<feFlood flood-opacity="0" result="BackgroundImageFix"/>
<feBlend mode="normal" in="SourceGraphic" in2="BackgroundImageFix" result="shape"/>
<feColorMatrix in="SourceAlpha" type="matrix" values="0 0 0 0 0 0 0 0 0 0 0 0 0 0 0 0 0 0 127 0" result="hardAlpha"/>
<feOffset dx="4" dy="4"/>
<feGaussianBlur stdDeviation="2"/>
<feComposite in2="hardAlpha" operator="arithmetic" k2="-1" k3="1"/>
<feColorMatrix type="matrix" values="0 0 0 0 1 0 0 0 0 1 0 0 0 0 1 0 0 0 0.25 0"/>
<feBlend mode="normal" in2="shape" result="effect1_innerShadow_437_685"/>
</filter>
<linearGradient id="paint0_linear_437_685" x1="5" y1="13.0007" x2="4.99999" y2="209.801" gradientUnits="userSpaceOnUse">
<stop stop-color="#00D1FF"/>
<stop offset="1" stop-color="#EF0182"/>
</linearGradient>
<linearGradient id="paint1_linear_437_685" x1="5" y1="13.0007" x2="4.99999" y2="209.801" gradientUnits="userSpaceOnUse">
<stop stop-color="#00D1FF"/>
<stop offset="1" stop-color="#EF0182"/>
</linearGradient>
<linearGradient id="paint2_linear_437_685" x1="5" y1="13.0007" x2="4.99999" y2="209.801" gradientUnits="userSpaceOnUse">
<stop stop-color="#00D1FF"/>
<stop offset="1" stop-color="#EF0182"/>
</linearGradient>
<linearGradient id="paint3_linear_437_685" x1="5" y1="13.0007" x2="4.99999" y2="209.801" gradientUnits="userSpaceOnUse">
<stop stop-color="#00D1FF"/>
<stop offset="1" stop-color="#EF0182"/>
</linearGradient>
<linearGradient id="paint4_linear_437_685" x1="54" y1="218" x2="205" y2="218" gradientUnits="userSpaceOnUse">
<stop stop-color="#FF2CDF"/>
<stop offset="1" stop-color="#0014FF"/>
</linearGradient>
<linearGradient id="paint5_linear_437_685" x1="149" y1="168.09" x2="57.0276" y2="166.251" gradientUnits="userSpaceOnUse">
<stop stop-color="#ED5F5F"/>
<stop offset="1" stop-color="#008C99"/>
</linearGradient>
<linearGradient id="paint6_linear_437_685" x1="149" y1="168.09" x2="57.0276" y2="166.251" gradientUnits="userSpaceOnUse">
<stop stop-color="#ED5F5F"/>
<stop offset="1" stop-color="#008C99"/>
</linearGradient>
<linearGradient id="paint7_linear_437_685" x1="149" y1="168.09" x2="57.0276" y2="166.251" gradientUnits="userSpaceOnUse">
<stop stop-color="#ED5F5F"/>
<stop offset="1" stop-color="#008C99"/>
</linearGradient>
<linearGradient id="paint8_linear_437_685" x1="149" y1="168.09" x2="57.0276" y2="166.251" gradientUnits="userSpaceOnUse">
<stop stop-color="#ED5F5F"/>
<stop offset="1" stop-color="#008C99"/>
</linearGradient>
<linearGradient id="paint9_linear_437_685" x1="149" y1="168.09" x2="57.0276" y2="166.251" gradientUnits="userSpaceOnUse">
<stop stop-color="#ED5F5F"/>
<stop offset="1" stop-color="#008C99"/>
</linearGradient>
<linearGradient id="paint10_linear_437_685" x1="149" y1="168.09" x2="57.0276" y2="166.251" gradientUnits="userSpaceOnUse">
<stop stop-color="#ED5F5F"/>
<stop offset="1" stop-color="#008C99"/>
</linearGradient>
<linearGradient id="paint11_linear_437_685" x1="149" y1="168.09" x2="57.0276" y2="166.251" gradientUnits="userSpaceOnUse">
<stop stop-color="#ED5F5F"/>
<stop offset="1" stop-color="#008C99"/>
</linearGradient>
<linearGradient id="paint12_linear_437_685" x1="135.048" y1="116.486" x2="109.612" y2="116.047" gradientUnits="userSpaceOnUse">
<stop stop-color="#ED5F5F"/>
<stop offset="1" stop-color="#008C99"/>
</linearGradient>
<linearGradient id="paint13_linear_437_685" x1="140.331" y1="118.007" x2="110.798" y2="117.319" gradientUnits="userSpaceOnUse">
<stop stop-color="#ED5F5F"/>
<stop offset="1" stop-color="#008C99"/>
</linearGradient>
<linearGradient id="paint14_linear_437_685" x1="96.3416" y1="162.244" x2="70.4827" y2="161.791" gradientUnits="userSpaceOnUse">
<stop stop-color="#ED5F5F"/>
<stop offset="1" stop-color="#008C99"/>
</linearGradient>
<linearGradient id="paint15_linear_437_685" x1="94.7602" y1="156.934" x2="65.2788" y2="156.256" gradientUnits="userSpaceOnUse">
<stop stop-color="#ED5F5F"/>
<stop offset="1" stop-color="#008C99"/>
</linearGradient>
<linearGradient id="paint16_linear_437_685" x1="213" y1="190" x2="213" y2="172" gradientUnits="userSpaceOnUse">
<stop stop-color="#73F6AF"/>
<stop offset="1" stop-color="#ED5F5F"/>
</linearGradient>
<linearGradient id="paint17_linear_437_685" x1="169.75" y1="184" x2="169.75" y2="86" gradientUnits="userSpaceOnUse">
<stop stop-color="#00D1FF"/>
<stop offset="1" stop-color="#73F6AF"/>
</linearGradient>
<linearGradient id="paint18_linear_437_685" x1="169.75" y1="184" x2="169.75" y2="86" gradientUnits="userSpaceOnUse">
<stop stop-color="#00D1FF"/>
<stop offset="1" stop-color="#73F6AF"/>
</linearGradient>
<linearGradient id="paint19_linear_437_685" x1="169.75" y1="184" x2="169.75" y2="86" gradientUnits="userSpaceOnUse">
<stop stop-color="#00D1FF"/>
<stop offset="1" stop-color="#73F6AF"/>
</linearGradient>
<linearGradient id="paint20_linear_437_685" x1="169.75" y1="184" x2="169.75" y2="86" gradientUnits="userSpaceOnUse">
<stop stop-color="#00D1FF"/>
<stop offset="1" stop-color="#73F6AF"/>
</linearGradient>
<linearGradient id="paint21_linear_437_685" x1="169.75" y1="184" x2="169.75" y2="86" gradientUnits="userSpaceOnUse">
<stop stop-color="#00D1FF"/>
<stop offset="1" stop-color="#73F6AF"/>
</linearGradient>
<linearGradient id="paint22_linear_437_685" x1="169.75" y1="184" x2="169.75" y2="86" gradientUnits="userSpaceOnUse">
<stop stop-color="#00D1FF"/>
<stop offset="1" stop-color="#73F6AF"/>
</linearGradient>
<linearGradient id="paint23_linear_437_685" x1="169.75" y1="184" x2="169.75" y2="86" gradientUnits="userSpaceOnUse">
<stop stop-color="#00D1FF"/>
<stop offset="1" stop-color="#73F6AF"/>
</linearGradient>
<linearGradient id="paint24_linear_437_685" x1="169.75" y1="184" x2="169.75" y2="86" gradientUnits="userSpaceOnUse">
<stop stop-color="#00D1FF"/>
<stop offset="1" stop-color="#73F6AF"/>
</linearGradient>
<linearGradient id="paint25_linear_437_685" x1="169.75" y1="184" x2="169.75" y2="86" gradientUnits="userSpaceOnUse">
<stop stop-color="#00D1FF"/>
<stop offset="1" stop-color="#73F6AF"/>
</linearGradient>
<linearGradient id="paint26_linear_437_685" x1="169.75" y1="184" x2="169.75" y2="86" gradientUnits="userSpaceOnUse">
<stop stop-color="#00D1FF"/>
<stop offset="1" stop-color="#73F6AF"/>
</linearGradient>
<linearGradient id="paint27_linear_437_685" x1="169.75" y1="184" x2="169.75" y2="86" gradientUnits="userSpaceOnUse">
<stop stop-color="#00D1FF"/>
<stop offset="1" stop-color="#73F6AF"/>
</linearGradient>
<linearGradient id="paint28_linear_437_685" x1="169.75" y1="184" x2="169.75" y2="86" gradientUnits="userSpaceOnUse">
<stop stop-color="#00D1FF"/>
<stop offset="1" stop-color="#73F6AF"/>
</linearGradient>
<linearGradient id="paint29_linear_437_685" x1="169.75" y1="184" x2="169.75" y2="86" gradientUnits="userSpaceOnUse">
<stop stop-color="#00D1FF"/>
<stop offset="1" stop-color="#73F6AF"/>
</linearGradient>
<linearGradient id="paint30_linear_437_685" x1="169.75" y1="184" x2="169.75" y2="86" gradientUnits="userSpaceOnUse">
<stop stop-color="#00D1FF"/>
<stop offset="1" stop-color="#73F6AF"/>
</linearGradient>
<linearGradient id="paint31_linear_437_685" x1="169.75" y1="184" x2="169.75" y2="86" gradientUnits="userSpaceOnUse">
<stop stop-color="#00D1FF"/>
<stop offset="1" stop-color="#73F6AF"/>
</linearGradient>
<linearGradient id="paint32_linear_437_685" x1="169.75" y1="184" x2="169.75" y2="86" gradientUnits="userSpaceOnUse">
<stop stop-color="#00D1FF"/>
<stop offset="1" stop-color="#73F6AF"/>
</linearGradient>
</defs>
</svg>
