<svg width="32" height="32" viewBox="0 0 32 32" fill="none" xmlns="http://www.w3.org/2000/svg">
<g filter="url(#filter0_i_486_573)">
<path d="M6.63904 2.37568C3.5851 1.11786 0.66394 2.37568 0.66394 2.37568V3.82099L0.67179 3.81751C0.694459 3.80749 0.727886 3.79308 0.771388 3.7753C0.858387 3.73974 0.985714 3.69067 1.14791 3.63622C1.47226 3.52733 1.93638 3.39681 2.49657 3.30979C3.61027 3.1368 5.10659 3.13538 6.63904 3.82112V2.37568Z" fill="url(#paint0_linear_486_573)"/>
<path d="M6.63904 3.89711L6.61282 3.9613C5.10048 3.27698 3.61997 3.27654 2.51596 3.44803C1.96412 3.53375 1.50708 3.66232 1.18827 3.76935C1.02889 3.82285 0.904141 3.87095 0.81946 3.90556C0.777121 3.92287 0.744806 3.9368 0.723194 3.94635C0.712389 3.95112 0.704259 3.9548 0.698892 3.95726L0.692922 3.96001L0.691511 3.96067L0.691202 3.96082L0.66394 3.89711V4.66652C0.66394 4.66652 3.5851 3.28466 6.63904 4.66652V3.89711Z" fill="url(#paint1_linear_486_573)"/>
<path fill-rule="evenodd" clip-rule="evenodd" d="M0.66394 30.463V5.22548C0.66394 5.22548 3.5851 3.84361 6.63904 5.22548V30.463H0.66394ZM1.19506 5.86896H6.10792V28.227H1.19506V5.86896Z" fill="url(#paint2_linear_486_573)"/>
<path d="M5.84236 6.14843H1.46062V27.9476H5.84236V6.14843Z" fill="url(#paint3_linear_486_573)"/>
</g>
<path fill-rule="evenodd" clip-rule="evenodd" d="M7.67017 30.463C7.39402 30.463 7.17017 30.2391 7.17017 29.963L7.17017 27.0503C7.17017 26.7741 7.39402 26.5503 7.67017 26.5503L8.52904 26.5503L8.52904 30.463L7.67017 30.463ZM9.02904 30.463L9.02904 26.5503L12.2469 26.5503L12.2469 30.463L9.02904 30.463ZM12.7469 30.463L26.72 30.463C26.9961 30.463 27.22 30.2391 27.22 29.963L27.22 27.0503C27.22 26.7741 26.9961 26.5503 26.72 26.5503L12.7469 26.5503L12.7469 30.463Z" fill="url(#paint4_linear_486_573)"/>
<path d="M21.0703 25.1412C20.035 25.819 18.7802 26.2158 17.4279 26.2158C13.8779 26.2158 11 23.4812 11 20.1079C11 18.828 11.4143 17.6401 12.1224 16.6586L16.1251 19.3324C15.9767 19.5571 15.8908 19.823 15.8908 20.1079C15.8908 20.9145 16.579 21.5685 17.4279 21.5685C17.7438 21.5685 18.0375 21.4779 18.2816 21.3227L21.0703 25.1412Z" fill="url(#paint5_linear_486_573)"/>
<path d="M21.1845 25.0647L18.3942 21.2439C18.436 21.2118 18.4759 21.1776 18.5139 21.1416L21.941 24.4572C21.7058 24.6775 21.4529 24.8807 21.1845 25.0647Z" fill="url(#paint6_linear_486_573)"/>
<path d="M22.0392 24.3632L18.5824 21.0723C18.6084 21.0442 18.6333 21.0151 18.657 20.9851L22.7006 23.6024C22.5017 23.8728 22.2804 24.1272 22.0392 24.3632Z" fill="url(#paint7_linear_486_573)"/>
<path d="M22.7877 23.4808L18.7361 20.8752C18.8813 20.6522 18.9651 20.3893 18.9651 20.1079C18.9651 19.3012 18.2769 18.6473 17.4279 18.6473C17.1449 18.6473 16.8797 18.72 16.652 18.8468L13.8784 15.0149C14.8955 14.3736 16.1158 14 17.4279 14C20.978 14 23.8559 16.7346 23.8559 20.1079C23.8559 21.3547 23.4627 22.5143 22.7877 23.4808Z" fill="url(#paint8_linear_486_573)"/>
<path fill-rule="evenodd" clip-rule="evenodd" d="M16.6139 19.0285C16.5774 19.0534 16.5422 19.0799 16.5085 19.108C16.5059 19.1101 16.5034 19.1122 16.5009 19.1144C16.4685 19.1416 16.4375 19.1703 16.408 19.2003C16.3767 19.232 16.3471 19.2652 16.3192 19.2997C16.3189 19.3 16.3186 19.3004 16.3183 19.3007C16.2903 19.3355 16.264 19.3716 16.2396 19.4089C16.1071 19.6119 16.0306 19.8514 16.0306 20.1079C16.0306 20.8412 16.6562 21.4357 17.4279 21.4357C17.7142 21.4357 17.9804 21.3539 18.202 21.2136C18.2044 21.212 18.2068 21.2105 18.2092 21.2089C18.2455 21.1856 18.2806 21.1608 18.3143 21.1345C18.3497 21.1068 18.3836 21.0776 18.416 21.0469L18.4061 21.0373L18.476 20.971L18.4834 20.9781C18.5035 20.9561 18.5229 20.9335 18.5414 20.9103C18.5435 20.9076 18.5456 20.905 18.5477 20.9023C18.5735 20.8696 18.5977 20.8357 18.6203 20.8007C18.7503 20.599 18.8253 20.3618 18.8253 20.1079C18.8253 19.3746 18.1997 18.7801 17.4279 18.7801C17.1743 18.7801 16.9364 18.8443 16.7314 18.9565C16.7269 18.959 16.7223 18.9615 16.7178 18.9641C16.6821 18.9841 16.6475 19.0056 16.6139 19.0285ZM17.428 20.6511C17.7437 20.6511 17.9996 20.4079 17.9996 20.1079C17.9996 19.8079 17.7437 19.5647 17.428 19.5647C17.1122 19.5647 16.8563 19.8079 16.8563 20.1079C16.8563 20.4079 17.1122 20.6511 17.428 20.6511Z" fill="url(#paint9_linear_486_573)"/>
<path d="M16.2043 19.2238C16.2373 19.1826 16.2726 19.1431 16.31 19.1055L12.8821 15.7895C12.6288 16.0303 12.3965 16.2911 12.1881 16.5692L16.2043 19.2238Z" fill="url(#paint10_linear_486_573)"/>
<path d="M13.7506 15.0976C13.4672 15.2857 13.2005 15.4951 12.953 15.7231L16.4096 19.0138C16.4494 18.9803 16.491 18.9488 16.5344 18.9193L13.7506 15.0976Z" fill="url(#paint11_linear_486_573)"/>
<path d="M22.0391 24.3632L18.5823 21.0723C18.6083 21.0442 18.6332 21.0151 18.6569 20.9852L22.7005 23.6024C22.5016 23.8728 22.2803 24.1273 22.0391 24.3632Z" fill="url(#paint12_linear_486_573)"/>
<path d="M21.1844 25.0647L18.394 21.2438C18.4358 21.2117 18.4757 21.1776 18.5137 21.1415L21.9408 24.4572C21.7057 24.6775 21.4528 24.8807 21.1844 25.0647Z" fill="url(#paint13_linear_486_573)"/>
<path d="M16.2043 19.2238C16.2374 19.1825 16.2727 19.143 16.31 19.1054L12.8821 15.7895C12.6288 16.0303 12.3965 16.2911 12.1881 16.5692L16.2043 19.2238Z" fill="url(#paint14_linear_486_573)"/>
<path d="M13.7506 15.0976C13.4672 15.2858 13.2005 15.4951 12.953 15.7232L16.4096 19.0138C16.4494 18.9804 16.491 18.9488 16.5343 18.9194L13.7506 15.0976Z" fill="url(#paint15_linear_486_573)"/>
<mask id="path-8-inside-1_486_573" fill="white">
<path fill-rule="evenodd" clip-rule="evenodd" d="M28.251 3.49346C27.9748 3.49346 27.751 3.71732 27.751 3.99346L27.751 29.9629C27.751 30.239 27.9748 30.4629 28.251 30.4629L30.7033 30.4629C30.9794 30.4629 31.2033 30.239 31.2033 29.9629L31.2033 3.99346C31.2033 3.71732 30.9794 3.49346 30.7033 3.49346L28.251 3.49346Z"/>
</mask>
<path fill-rule="evenodd" clip-rule="evenodd" d="M28.251 3.49346C27.9748 3.49346 27.751 3.71732 27.751 3.99346L27.751 29.9629C27.751 30.239 27.9748 30.4629 28.251 30.4629L30.7033 30.4629C30.9794 30.4629 31.2033 30.239 31.2033 29.9629L31.2033 3.99346C31.2033 3.71732 30.9794 3.49346 30.7033 3.49346L28.251 3.49346Z" fill="#333333"/>
<path d="M29.1022 30.4629L29.1022 3.63319L28.8522 3.63319L28.8522 30.4629L29.1022 30.4629ZM28.001 29.9629L28.001 3.99346L27.501 3.99346L27.501 29.9629L28.001 29.9629ZM30.7033 30.2129L28.251 30.2129L28.251 30.7129L30.7033 30.7129L30.7033 30.2129ZM30.9533 3.99346L30.9533 29.9629L31.4533 29.9629L31.4533 3.99346L30.9533 3.99346ZM28.251 3.74346L30.7033 3.74346L30.7033 3.24346L28.251 3.24346L28.251 3.74346ZM31.4533 3.99346C31.4533 3.57924 31.1175 3.24346 30.7033 3.24346L30.7033 3.74346C30.8413 3.74346 30.9533 3.85539 30.9533 3.99346L31.4533 3.99346ZM30.7033 30.7129C31.1175 30.7129 31.4533 30.3771 31.4533 29.9629L30.9533 29.9629C30.9533 30.101 30.8413 30.2129 30.7033 30.2129L30.7033 30.7129ZM28.001 3.99346C28.001 3.85539 28.1129 3.74346 28.251 3.74346L28.251 3.24346C27.8368 3.24346 27.501 3.57924 27.501 3.99346L28.001 3.99346ZM27.501 29.9629C27.501 30.3771 27.8368 30.7129 28.251 30.7129L28.251 30.2129C28.1129 30.2129 28.001 30.101 28.001 29.9629L27.501 29.9629Z" fill="black" mask="url(#path-8-inside-1_486_573)"/>
<rect x="28.2821" y="24.0351" width="19.0044" height="2.39004" rx="0.5" transform="rotate(-90 28.2821 24.0351)" fill="url(#paint16_linear_486_573)"/>
<path d="M15.6129 11.5593C15.4894 11.4694 15.2198 11.1422 15.1652 10.956C15.1143 10.782 15.1267 10.2653 15.2672 10.1264L15.2257 10.0786L15.2615 10.0239C15.2222 10.0433 15.188 10.0772 15.1594 10.1247C15.0316 10.3371 15.0327 10.8138 15.0817 10.9811C15.1293 11.1431 15.3182 11.396 15.4645 11.5443L15.6129 11.5593Z" fill="url(#paint17_linear_486_573)"/>
<path d="M15.1652 10.956C15.2198 11.1422 15.4894 11.4694 15.6129 11.5593L15.4645 11.5443C15.5121 11.5925 15.5551 11.6296 15.5874 11.649C15.6197 11.6679 15.6511 11.6821 15.6813 11.6899C15.7057 11.7859 15.7304 11.8574 15.7565 11.9074C15.8154 12.0198 16.3865 12.6403 16.8571 12.9037C17.0067 12.9872 17.2088 13 17.316 13C17.3339 13 17.3469 12.9995 17.3533 12.9993L17.3534 12.9993C17.3599 12.9995 17.3727 13 17.3904 13C17.4977 13 17.6998 12.9872 17.8493 12.9038C18.3205 12.64 18.8914 12.0196 18.95 11.9073C18.9665 11.8755 18.9824 11.8352 18.9981 11.7854L18.9051 11.7887C18.9223 11.739 18.9391 11.6795 18.955 11.6103C18.9817 11.6123 19.0212 11.6057 19.075 11.5737C19.1883 11.5052 19.484 11.1515 19.5417 10.956C19.5781 10.8314 19.582 10.5312 19.5298 10.3197C19.5068 10.3383 19.4812 10.3581 19.454 10.3786C19.4917 10.5656 19.4906 10.8219 19.4586 10.9314C19.4071 11.107 19.1227 11.4435 19.0307 11.4985C18.993 11.5209 18.9711 11.5235 18.9636 11.5235L18.8872 11.5182L18.8706 11.591C18.8393 11.7279 18.8131 11.7944 18.7966 11.8259C18.7521 11.9085 18.2133 12.5001 17.7651 12.751C17.6423 12.82 17.4475 12.8253 17.3906 12.8253C17.3744 12.8253 17.3637 12.825 17.3596 12.8249L17.3578 12.8248L17.3535 12.8246L17.3491 12.8248C17.348 12.8248 17.3359 12.8253 17.3161 12.8253C17.2594 12.8253 17.0646 12.82 16.9415 12.751C16.4936 12.5004 15.9543 11.9085 15.9101 11.8259C15.8937 11.7944 15.8675 11.7279 15.8361 11.591L15.8193 11.518L15.7453 11.5235H15.7431C15.7354 11.5235 15.7137 11.5213 15.6762 11.4987C15.5839 11.4431 15.2997 11.107 15.2482 10.9314C15.2045 10.7826 15.2179 10.3647 15.3079 10.215C15.3138 10.2051 15.3194 10.1976 15.3244 10.1921L15.2672 10.1264C15.1267 10.2653 15.1143 10.782 15.1652 10.956Z" fill="url(#paint18_linear_486_573)"/>
<path fill-rule="evenodd" clip-rule="evenodd" d="M22.8 9.1533L20.3473 10.533L21.5522 10.856L19.6803 11.415L20.3474 11.7381L18.9981 11.7854L18.9051 11.7887C18.9223 11.739 18.9391 11.6795 18.955 11.6103C18.9817 11.6123 19.0212 11.6057 19.075 11.5737C19.1883 11.5052 19.484 11.1515 19.5417 10.956C19.5781 10.8314 19.582 10.5312 19.5298 10.3197C19.5068 10.3383 19.4812 10.3581 19.454 10.3786C19.2632 10.5224 18.996 10.6979 18.996 10.6979L19.2127 10.2352C19.2127 10.2352 18.9785 10.4155 18.8574 10.4885C18.9439 10.244 19.1106 9.63038 19.0651 9.51906C19.0385 9.45409 18.9785 9.42303 18.9785 9.42303C18.9525 9.60067 18.4327 10.4333 18.0338 10.8639C18.0388 10.8375 18.0443 10.8093 18.0502 10.7794C18.134 10.3503 18.2851 9.57719 18.1637 9.07366C17.7129 9.24847 16.8839 10.2498 16.6122 10.7768C16.5288 10.34 16.5689 9.30961 16.5689 9.30961C16.5689 9.30961 16.2252 9.47283 16.0922 9.75809C15.9882 10.0521 16.0748 10.5763 16.0748 10.5763L15.6675 10.192L15.7196 10.6462L15.3244 10.1921L15.2672 10.1264L15.2257 10.0786L15.2615 10.0239C15.2764 10.0165 15.292 10.0112 15.3082 10.008C15.3573 9.99836 15.4052 10.0001 15.4487 10.0123C15.4517 9.89253 15.4687 9.77511 15.499 9.66141L15.2615 10.0239C15.2222 10.0433 15.188 10.0772 15.1594 10.1247C15.0316 10.3371 15.0327 10.8138 15.0817 10.9811C15.1293 11.1431 15.3182 11.396 15.4645 11.5443L13.4924 11.3449L14.541 10.7334C14.541 10.7334 13.9082 10.2794 12.019 9.91256C12.019 9.91256 13.553 8.99551 14.4283 8.91698C14.4283 8.91698 14.1683 7.66807 11.8 6.42792C12.4697 5.98252 13.7177 5.31868 14.3156 5.35369C15.3382 5.51087 16.2482 6.53283 16.2482 6.53283C16.2482 6.53283 16.4822 5.81659 15.8495 4C15.9722 4.03385 16.095 4.06577 16.2163 4.09732C16.9089 4.2774 17.5561 4.44566 17.8969 4.89535C18.5295 5.90856 18.4407 7.04812 18.4407 7.04812C18.4407 7.04812 19.0646 7.23155 19.3419 7.51102C19.797 7.96973 19.8445 8.32328 19.8445 8.32328L22.0632 8.1486L21.0667 9.04815L22.8 9.1533Z" fill="url(#paint19_linear_486_573)"/>
<path d="M15.3082 10.008C15.3573 9.99836 15.4052 10.0001 15.4487 10.0123C15.4517 9.89253 15.4687 9.77511 15.499 9.66141L15.2615 10.0239C15.2764 10.0165 15.292 10.0112 15.3082 10.008Z" fill="url(#paint20_linear_486_573)"/>
<defs>
<filter id="filter0_i_486_573" x="0.66394" y="1.81665" width="9.9751" height="32.6464" filterUnits="userSpaceOnUse" color-interpolation-filters="sRGB">
<feFlood flood-opacity="0" result="BackgroundImageFix"/>
<feBlend mode="normal" in="SourceGraphic" in2="BackgroundImageFix" result="shape"/>
<feColorMatrix in="SourceAlpha" type="matrix" values="0 0 0 0 0 0 0 0 0 0 0 0 0 0 0 0 0 0 127 0" result="hardAlpha"/>
<feOffset dx="4" dy="4"/>
<feGaussianBlur stdDeviation="2"/>
<feComposite in2="hardAlpha" operator="arithmetic" k2="-1" k3="1"/>
<feColorMatrix type="matrix" values="0 0 0 0 1 0 0 0 0 1 0 0 0 0 1 0 0 0 0.25 0"/>
<feBlend mode="normal" in2="shape" result="effect1_innerShadow_486_573"/>
</filter>
<linearGradient id="paint0_linear_486_573" x1="0.66394" y1="1.81665" x2="0.663939" y2="29.3172" gradientUnits="userSpaceOnUse">
<stop stop-color="#00D1FF"/>
<stop offset="1" stop-color="#EF0182"/>
</linearGradient>
<linearGradient id="paint1_linear_486_573" x1="0.66394" y1="1.81665" x2="0.663939" y2="29.3172" gradientUnits="userSpaceOnUse">
<stop stop-color="#00D1FF"/>
<stop offset="1" stop-color="#EF0182"/>
</linearGradient>
<linearGradient id="paint2_linear_486_573" x1="0.66394" y1="1.81665" x2="0.663939" y2="29.3172" gradientUnits="userSpaceOnUse">
<stop stop-color="#00D1FF"/>
<stop offset="1" stop-color="#EF0182"/>
</linearGradient>
<linearGradient id="paint3_linear_486_573" x1="0.66394" y1="1.81665" x2="0.663939" y2="29.3172" gradientUnits="userSpaceOnUse">
<stop stop-color="#00D1FF"/>
<stop offset="1" stop-color="#EF0182"/>
</linearGradient>
<linearGradient id="paint4_linear_486_573" x1="7.17017" y1="30.463" x2="27.22" y2="30.463" gradientUnits="userSpaceOnUse">
<stop stop-color="#FF2CDF"/>
<stop offset="1" stop-color="#0014FF"/>
</linearGradient>
<linearGradient id="paint5_linear_486_573" x1="11.5464" y1="26.2158" x2="11.7785" y2="14.0032" gradientUnits="userSpaceOnUse">
<stop stop-color="#ED5F5F"/>
<stop offset="1" stop-color="#008C99"/>
</linearGradient>
<linearGradient id="paint6_linear_486_573" x1="11.5464" y1="26.2158" x2="11.7785" y2="14.0032" gradientUnits="userSpaceOnUse">
<stop stop-color="#ED5F5F"/>
<stop offset="1" stop-color="#008C99"/>
</linearGradient>
<linearGradient id="paint7_linear_486_573" x1="11.5464" y1="26.2158" x2="11.7785" y2="14.0032" gradientUnits="userSpaceOnUse">
<stop stop-color="#ED5F5F"/>
<stop offset="1" stop-color="#008C99"/>
</linearGradient>
<linearGradient id="paint8_linear_486_573" x1="11.5464" y1="26.2158" x2="11.7785" y2="14.0032" gradientUnits="userSpaceOnUse">
<stop stop-color="#ED5F5F"/>
<stop offset="1" stop-color="#008C99"/>
</linearGradient>
<linearGradient id="paint9_linear_486_573" x1="11.5464" y1="26.2158" x2="11.7785" y2="14.0032" gradientUnits="userSpaceOnUse">
<stop stop-color="#ED5F5F"/>
<stop offset="1" stop-color="#008C99"/>
</linearGradient>
<linearGradient id="paint10_linear_486_573" x1="11.5464" y1="26.2158" x2="11.7785" y2="14.0032" gradientUnits="userSpaceOnUse">
<stop stop-color="#ED5F5F"/>
<stop offset="1" stop-color="#008C99"/>
</linearGradient>
<linearGradient id="paint11_linear_486_573" x1="11.5464" y1="26.2158" x2="11.7785" y2="14.0032" gradientUnits="userSpaceOnUse">
<stop stop-color="#ED5F5F"/>
<stop offset="1" stop-color="#008C99"/>
</linearGradient>
<linearGradient id="paint12_linear_486_573" x1="18.7573" y1="24.3632" x2="18.8127" y2="20.9857" gradientUnits="userSpaceOnUse">
<stop stop-color="#ED5F5F"/>
<stop offset="1" stop-color="#008C99"/>
</linearGradient>
<linearGradient id="paint13_linear_486_573" x1="18.5448" y1="25.0647" x2="18.6315" y2="21.1431" gradientUnits="userSpaceOnUse">
<stop stop-color="#ED5F5F"/>
<stop offset="1" stop-color="#008C99"/>
</linearGradient>
<linearGradient id="paint14_linear_486_573" x1="12.3633" y1="19.2238" x2="12.4205" y2="15.7901" gradientUnits="userSpaceOnUse">
<stop stop-color="#ED5F5F"/>
<stop offset="1" stop-color="#008C99"/>
</linearGradient>
<linearGradient id="paint15_linear_486_573" x1="13.1052" y1="19.0138" x2="13.1908" y2="15.0991" gradientUnits="userSpaceOnUse">
<stop stop-color="#ED5F5F"/>
<stop offset="1" stop-color="#008C99"/>
</linearGradient>
<linearGradient id="paint16_linear_486_573" x1="28.2821" y1="26.4251" x2="28.2821" y2="24.0351" gradientUnits="userSpaceOnUse">
<stop stop-color="#73F6AF"/>
<stop offset="1" stop-color="#ED5F5F"/>
</linearGradient>
<linearGradient id="paint17_linear_486_573" x1="14.825" y1="13" x2="14.825" y2="4" gradientUnits="userSpaceOnUse">
<stop stop-color="#00D1FF"/>
<stop offset="1" stop-color="#73F6AF"/>
</linearGradient>
<linearGradient id="paint18_linear_486_573" x1="14.825" y1="13" x2="14.825" y2="4" gradientUnits="userSpaceOnUse">
<stop stop-color="#00D1FF"/>
<stop offset="1" stop-color="#73F6AF"/>
</linearGradient>
<linearGradient id="paint19_linear_486_573" x1="14.825" y1="13" x2="14.825" y2="4" gradientUnits="userSpaceOnUse">
<stop stop-color="#00D1FF"/>
<stop offset="1" stop-color="#73F6AF"/>
</linearGradient>
<linearGradient id="paint20_linear_486_573" x1="14.825" y1="13" x2="14.825" y2="4" gradientUnits="userSpaceOnUse">
<stop stop-color="#00D1FF"/>
<stop offset="1" stop-color="#73F6AF"/>
</linearGradient>
</defs>
</svg>
