<svg width="146" height="111" viewBox="0 0 146 111" fill="none" xmlns="http://www.w3.org/2000/svg">
<path d="M50.6074 93.2311C48.9676 92.1227 45.3892 88.0875 44.6651 85.7902C43.989 83.6446 44.1535 77.2716 46.0189 75.5586L45.4671 74.9695L45.9433 74.2942C45.4219 74.5345 44.9677 74.9522 44.5871 75.5381C42.8921 78.1578 42.9067 84.0372 43.5561 86.1004C44.1885 88.0982 46.6956 91.2169 48.6377 93.046L50.6074 93.2311Z" fill="#F5FFFE"/>
<path d="M44.6651 85.7902C45.3892 88.0875 48.9676 92.1227 50.6074 93.2311L48.6377 93.046C49.2687 93.6403 49.84 94.0985 50.2681 94.3379C50.6967 94.5705 51.114 94.7454 51.515 94.8427C51.8381 96.0255 52.166 96.9074 52.5135 97.5247C53.2944 98.9113 60.875 106.563 67.121 109.813C69.1066 110.842 71.7888 111 73.2111 111C73.4497 111 73.6218 110.994 73.7063 110.991L73.708 110.991C73.7946 110.994 73.9644 111 74.1998 111C75.6237 111 78.3059 110.842 80.2899 109.814C86.544 106.56 94.1213 98.9082 94.899 97.5231C95.1184 97.1316 95.3299 96.6336 95.5377 96.0203L94.3032 96.0605C94.5321 95.4478 94.7545 94.7134 94.9656 93.8605C95.3195 93.8848 95.844 93.8042 96.5583 93.4089C98.0618 92.5636 101.988 88.2016 102.752 85.7902C103.235 84.2541 103.288 80.5517 102.595 77.9434C102.289 78.1725 101.95 78.4168 101.589 78.6692C102.089 80.9755 102.075 84.1366 101.65 85.4876C100.966 87.6527 97.1915 91.8034 95.9706 92.4815C95.4705 92.7582 95.1799 92.7901 95.0792 92.7901L94.0661 92.7248L93.8453 93.6218C93.4297 95.311 93.0822 96.1305 92.863 96.5197C92.272 97.5384 85.1217 104.835 79.1729 107.929C77.5428 108.78 74.9564 108.846 74.2015 108.846C73.9872 108.846 73.8442 108.842 73.7898 108.84L73.7663 108.84L73.7095 108.836L73.6511 108.84C73.6364 108.84 73.4757 108.846 73.2127 108.846C72.461 108.846 69.8746 108.78 68.2412 107.929C62.2957 104.838 55.1388 97.5384 54.5511 96.5197C54.3335 96.1305 53.9861 95.311 53.5688 93.6218L53.3464 92.7217L52.3641 92.7901H52.3349C52.2326 92.7901 51.9452 92.7628 51.4468 92.4845C50.2226 91.7988 46.4494 87.6527 45.7658 85.4876C45.1862 83.6525 45.3648 78.4984 46.5582 76.6511C46.6369 76.53 46.7114 76.4375 46.7781 76.3692L46.0189 75.5586C44.1535 77.2716 43.989 83.6446 44.6651 85.7902Z" fill="#F5FFFE"/>
<path fill-rule="evenodd" clip-rule="evenodd" d="M146 63.5574L113.445 80.5737L129.438 84.5572L104.592 91.4522L113.447 95.4372L95.5377 96.0203L94.3032 96.0605C94.5321 95.4478 94.7545 94.7134 94.9656 93.8605C95.3195 93.8848 95.844 93.8042 96.5583 93.4089C98.0618 92.5636 101.988 88.2016 102.752 85.7902C103.235 84.2541 103.288 80.5517 102.595 77.9434C102.289 78.1725 101.95 78.4168 101.589 78.6692C99.0567 80.4425 95.5095 82.608 95.5095 82.608L98.3865 76.9004C98.3865 76.9004 95.2773 79.1248 93.67 80.0248C94.8178 77.0099 97.0308 69.4413 96.4268 68.0684C96.0745 67.2672 95.2773 66.884 95.2773 66.884C94.9331 69.0749 88.0329 79.3437 82.7383 84.6545C82.8057 84.3295 82.8789 83.9815 82.9564 83.6128C84.0694 78.3202 86.0745 68.7853 84.4626 62.5752C78.4796 64.7311 67.4765 77.0813 63.8705 83.5811C62.7632 78.1928 63.2958 65.4852 63.2958 65.4852C63.2958 65.4852 58.7335 67.4982 56.9686 71.0165C55.5886 74.6426 56.7381 81.1074 56.7381 81.1074L51.3315 76.3683L52.0232 81.9694L46.7781 76.3692L46.0189 75.5586L45.4671 74.9695L45.9433 74.2942C46.1404 74.2034 46.3471 74.1379 46.563 74.0983C47.2141 73.9797 47.8505 74.001 48.4269 74.1515C48.467 72.6745 48.6929 71.2264 49.0956 69.8241L45.9433 74.2942C45.4219 74.5345 44.9677 74.9522 44.5871 75.5381C42.8921 78.1578 42.9067 84.0372 43.5561 86.1004C44.1885 88.0982 46.6956 91.2169 48.6377 93.046L22.4624 90.5871L36.3799 83.0459C36.3799 83.0459 27.981 77.4462 2.90623 72.9215C2.90623 72.9215 23.2661 61.6113 34.8845 60.6428C34.8845 60.6428 31.4328 45.2396 0 29.9443C8.88755 24.4511 25.4531 16.2637 33.3876 16.6955C46.9608 18.634 59.0387 31.2382 59.0387 31.2382C59.0387 31.2382 62.1447 22.4046 53.7474 0C55.3764 0.417522 57.0056 0.811119 58.6162 1.20024C67.8089 3.42121 76.3983 5.49644 80.9215 11.0427C89.3187 23.5389 88.14 37.5935 88.14 37.5935C88.14 37.5935 96.4203 39.8558 100.101 43.3026C106.141 48.96 106.772 53.3205 106.772 53.3205L136.219 51.1661L122.994 62.2605L146 63.5574Z" fill="#F5FFFE"/>
<path d="M46.563 74.0983C47.2141 73.9797 47.8505 74.001 48.4269 74.1515C48.467 72.6745 48.6929 71.2264 49.0956 69.8241L45.9433 74.2942C46.1404 74.2034 46.3471 74.1379 46.563 74.0983Z" fill="#F5FFFE"/>
</svg>
