<svg width="125" height="89" viewBox="0 0 125 89" fill="none" xmlns="http://www.w3.org/2000/svg">
<path fill-rule="evenodd" clip-rule="evenodd" d="M119.627 8.80556V74.1146C119.627 74.1146 100.574 68.8908 86.4182 71.5455C73.7389 73.9222 64.4078 80.6303 62.8337 81.8153V82.013C62.8337 82.013 62.7871 81.9769 62.7022 81.9128C62.6186 81.9769 62.572 82.013 62.572 82.013V81.8153C60.9992 80.6303 51.6682 73.9235 38.9929 71.5455C24.834 68.8895 3.91546 74.1146 3.91546 74.1146V8.61184C2.69205 8.79087 1.39466 8.98192 0 9.18499V79.5414C0 79.5414 22.7968 73.8207 38.3038 76.7305C53.5533 79.5909 62.7665 88.1947 62.7665 88.1947C62.7665 88.1947 71.9798 79.5909 87.2279 76.7305C102.738 73.8193 124.599 79.5414 124.599 79.5414V9.48826C124.599 9.48826 122.697 9.1743 119.627 8.80556ZM37.8421 64.9349C50.242 67.2582 59.8252 74.2575 59.8252 74.2575V10.004C59.8252 10.004 50.1913 2.99664 37.7627 0.666654C25.182 -1.69272 8.74745 2.96858 8.74745 2.96858V67.2222C8.74745 67.2222 25.234 62.5702 37.8421 64.9349ZM114.785 67.4573V3.20372C114.785 3.20372 99.7209 -1.45892 87.1457 0.901788C74.7171 3.23044 64.7667 10.2364 64.7667 10.2364V74.4913C64.7667 74.4913 74.6623 67.4947 87.0649 65.1674C99.6716 62.8067 114.785 67.4573 114.785 67.4573Z" fill="#F5FFFE"/>
</svg>
