<svg width="68" height="64" viewBox="0 0 68 64" fill="none" xmlns="http://www.w3.org/2000/svg">
<mask id="path-1-outside-1_334_881" maskUnits="userSpaceOnUse" x="0" y="10" width="68" height="45" fill="black">
<rect fill="white" y="10" width="68" height="45"/>
<path fill-rule="evenodd" clip-rule="evenodd" d="M16.3909 47.9188C15.0377 47.9188 13.7943 47.6967 12.6606 47.2526C11.5269 46.8085 10.5455 46.1783 9.71657 45.3621C8.88762 44.5459 8.24762 43.5797 7.79657 42.4634C7.34552 41.3472 7.12 40.1229 7.12 38.7905C7.12 37.4462 7.34552 36.2159 7.79657 35.0996C8.24762 33.9834 8.88762 33.0171 9.71657 32.2009C10.5455 31.3847 11.5269 30.7546 12.6606 30.3105C13.7943 29.8664 15.0377 29.6443 16.3909 29.6443C17.7562 29.6443 19.0057 29.8664 20.1394 30.3105C21.2731 30.7546 22.2545 31.3847 23.0834 32.2009C23.9124 33.0171 24.5524 33.9834 25.0034 35.0996C25.4545 36.2159 25.68 37.4462 25.68 38.7905C25.68 39.8708 25.5337 40.831 25.2411 41.6712C24.9486 42.4994 24.5402 43.1536 24.016 43.6337C23.504 44.1138 22.9067 44.3539 22.224 44.3539C21.6389 44.3539 21.1573 44.1678 20.7794 43.7958C20.4015 43.4237 20.2126 42.9495 20.2126 42.3734V41.7973C19.981 42.1453 19.6579 42.4634 19.2434 42.7515C18.8411 43.0276 18.3901 43.2436 17.8903 43.3997C17.4027 43.5557 16.9029 43.6337 16.3909 43.6337C15.44 43.6337 14.5928 43.4297 13.8491 43.0216C13.1055 42.6015 12.5204 42.0253 12.0937 41.2931C11.6792 40.561 11.472 39.7268 11.472 38.7905C11.472 37.8423 11.6792 37.0021 12.0937 36.2699C12.5204 35.5377 13.1055 34.9676 13.8491 34.5595C14.5928 34.1394 15.44 33.9293 16.3909 33.9293C17.3539 33.9293 18.2011 34.1394 18.9326 34.5595C19.6762 34.9676 20.2552 35.5377 20.6697 36.2699C21.0964 37.0021 21.3097 37.8423 21.3097 38.7905V42.0133C21.3097 42.4694 21.395 42.7935 21.5657 42.9856C21.7364 43.1776 21.9558 43.2736 22.224 43.2736C22.6872 43.2736 23.0956 43.0816 23.4491 42.6975C23.8027 42.3134 24.077 41.7853 24.272 41.1131C24.4792 40.4409 24.5829 39.6667 24.5829 38.7905C24.5829 37.6142 24.3817 36.534 23.9794 35.5497C23.5771 34.5655 23.0103 33.7133 22.2789 32.9931C21.5474 32.2729 20.6819 31.7148 19.6823 31.3187C18.6827 30.9226 17.5855 30.7246 16.3909 30.7246C15.1962 30.7246 14.099 30.9226 13.0994 31.3187C12.0998 31.7148 11.2343 32.2729 10.5029 32.9931C9.77143 33.7133 9.20457 34.5655 8.80229 35.5497C8.41219 36.534 8.21714 37.6142 8.21714 38.7905C8.21714 39.9668 8.41219 41.0471 8.80229 42.0313C9.20457 43.0156 9.77143 43.8678 10.5029 44.5879C11.2343 45.3081 12.0998 45.8603 13.0994 46.2444C14.099 46.6404 15.1962 46.8385 16.3909 46.8385C16.9638 46.8385 17.5611 46.7725 18.1829 46.6404C18.8168 46.5084 19.341 46.3464 19.7554 46.1543C19.9992 46.0343 20.2004 46.0043 20.3589 46.0643C20.5173 46.1363 20.5966 46.2924 20.5966 46.5324C20.5966 46.7245 20.4137 46.9285 20.048 47.1446C19.6945 47.3606 19.2008 47.5407 18.5669 47.6847C17.9451 47.8407 17.2198 47.9188 16.3909 47.9188ZM18.3657 42.0673C17.7928 42.3914 17.1345 42.5534 16.3909 42.5534C15.6472 42.5534 14.989 42.3914 14.416 42.0673C13.843 41.7433 13.392 41.2991 13.0629 40.735C12.7337 40.1709 12.5691 39.5227 12.5691 38.7905C12.5691 38.0463 12.7337 37.3922 13.0629 36.8281C13.392 36.2639 13.843 35.8198 14.416 35.4957C14.989 35.1716 15.6472 35.0096 16.3909 35.0096C17.1345 35.0096 17.7928 35.1716 18.3657 35.4957C18.9387 35.8198 19.3897 36.2639 19.7189 36.8281C20.048 37.3922 20.2126 38.0463 20.2126 38.7905C20.2126 39.5227 20.048 40.1709 19.7189 40.735C19.3897 41.2991 18.9387 41.7433 18.3657 42.0673Z"/>
</mask>
<path d="M34 33.4252L33.2056 34.6976L34.0152 35.2031L34.8161 34.6838L34 33.4252ZM61.0561 17.6697C61.7512 17.219 61.9493 16.2901 61.4986 15.595C61.0479 14.8999 60.119 14.7018 59.4239 15.1525L61.0561 17.6697ZM9.04 13.5H58.96V10.5H9.04V13.5ZM64.5 18.9317V46.0283H67.5V18.9317H64.5ZM58.96 51.46H9.04V54.46H58.96V51.46ZM3.5 46.0283V18.9317H0.5V46.0283H3.5ZM9.04 51.46C5.95833 51.46 3.5 49.0063 3.5 46.0283H0.5C0.5 50.7068 4.3455 54.46 9.04 54.46V51.46ZM64.5 46.0283C64.5 49.0063 62.0417 51.46 58.96 51.46V54.46C63.6545 54.46 67.5 50.7068 67.5 46.0283H64.5ZM58.96 13.5C62.0417 13.5 64.5 15.9537 64.5 18.9317H67.5C67.5 14.2532 63.6545 10.5 58.96 10.5V13.5ZM9.04 10.5C4.3455 10.5 0.5 14.2532 0.5 18.9317H3.5C3.5 15.9537 5.95833 13.5 9.04 13.5V10.5ZM6.96556 18.3136L33.2056 34.6976L34.7944 32.1529L8.55444 15.7689L6.96556 18.3136ZM34.8161 34.6838L61.0561 17.6697L59.4239 15.1525L33.1839 32.1666L34.8161 34.6838ZM9.71657 45.3621L11.8214 43.2244L9.71657 45.3621ZM7.79657 35.0996L5.01506 33.9757L7.79657 35.0996ZM9.71657 32.2009L7.61176 30.0632L7.61176 30.0632L9.71657 32.2009ZM12.6606 30.3105L11.5663 27.5171L11.5663 27.5171L12.6606 30.3105ZM20.1394 30.3105L21.2337 27.5171L21.2337 27.5171L20.1394 30.3105ZM23.0834 32.2009L25.1882 30.0632V30.0632L23.0834 32.2009ZM25.0034 35.0996L27.7849 33.9757V33.9757L25.0034 35.0996ZM25.2411 41.6712L28.0699 42.6705L28.0743 42.6578L25.2411 41.6712ZM24.016 43.6337L21.9897 41.4214L21.9767 41.4333L21.9639 41.4454L24.016 43.6337ZM20.2126 41.7973H23.2126V31.8734L17.715 40.1353L20.2126 41.7973ZM19.2434 42.7515L20.9409 45.2251L20.9483 45.22L20.9556 45.2149L19.2434 42.7515ZM17.8903 43.3997L16.9963 40.536L16.9861 40.5391L16.976 40.5424L17.8903 43.3997ZM13.8491 43.0216L12.3735 45.6336L12.3896 45.6426L12.4058 45.6515L13.8491 43.0216ZM12.0937 41.2931L9.483 42.771L9.49225 42.7874L9.5017 42.8036L12.0937 41.2931ZM12.0937 36.2699L9.5017 34.7595L9.49225 34.7757L9.483 34.792L12.0937 36.2699ZM13.8491 34.5595L15.2925 37.1895L15.3087 37.1806L15.3248 37.1715L13.8491 34.5595ZM18.9326 34.5595L17.4384 37.1609L17.4637 37.1755L17.4892 37.1895L18.9326 34.5595ZM20.6697 36.2699L18.059 37.7478L18.0682 37.7641L18.0777 37.7804L20.6697 36.2699ZM21.5657 42.9856L19.3232 44.9784L21.5657 42.9856ZM23.4491 42.6975L21.2418 40.6658L21.2418 40.6658L23.4491 42.6975ZM24.272 41.1131L21.4052 40.2292L21.3978 40.2531L21.3909 40.2771L24.272 41.1131ZM23.9794 35.5497L26.7564 34.4147L23.9794 35.5497ZM19.6823 31.3187L18.5771 34.1077L18.5771 34.1077L19.6823 31.3187ZM13.0994 31.3187L14.2046 34.1077L14.2046 34.1077L13.0994 31.3187ZM8.80229 35.5497L6.02529 34.4147L6.01924 34.4295L6.01335 34.4444L8.80229 35.5497ZM8.80229 42.0313L6.01335 43.1367L6.01924 43.1516L6.02529 43.1664L8.80229 42.0313ZM13.0994 46.2444L14.2046 43.4553L14.19 43.4496L14.1755 43.444L13.0994 46.2444ZM18.1829 46.6404L17.5711 43.7035L17.5597 43.7059L18.1829 46.6404ZM19.7554 46.1543L21.0167 48.8763L21.0488 48.8615L21.0805 48.8458L19.7554 46.1543ZM20.3589 46.0643L21.6 43.3331L21.5119 43.293L21.4213 43.2587L20.3589 46.0643ZM20.048 47.1446L18.5221 44.5616L18.5028 44.5731L18.4836 44.5848L20.048 47.1446ZM18.5669 47.6847L17.9021 44.7593L17.8693 44.7667L17.8366 44.7749L18.5669 47.6847ZM18.3657 42.0673L16.8887 39.4561L18.3657 42.0673ZM14.416 35.4957L15.893 38.107H15.893L14.416 35.4957ZM13.0629 36.8281L15.6541 38.3399L15.6541 38.3399L13.0629 36.8281ZM13.0629 40.735L15.6541 39.2232L13.0629 40.735ZM14.416 42.0673L15.893 39.4561H15.893L14.416 42.0673ZM16.3909 44.9188C15.3706 44.9188 14.5031 44.7524 13.7548 44.4593L11.5663 50.0459C13.0855 50.641 14.7049 50.9188 16.3909 50.9188V44.9188ZM13.7548 44.4593C12.9808 44.1561 12.3478 43.7428 11.8214 43.2244L7.61176 47.4998C8.74322 48.6139 10.0729 49.4609 11.5663 50.0459L13.7548 44.4593ZM11.8214 43.2244C11.2953 42.7064 10.8808 42.0887 10.5781 41.3395L5.01506 43.5873C5.61443 45.0707 6.47997 46.3855 7.61176 47.4998L11.8214 43.2244ZM10.5781 41.3395C10.286 40.6166 10.12 39.7788 10.12 38.7905H4.12C4.12 40.4669 4.40506 42.0777 5.01506 43.5873L10.5781 41.3395ZM10.12 38.7905C10.12 37.7866 10.2872 36.9433 10.5781 36.2235L5.01506 33.9757C4.40381 35.4885 4.12 37.1058 4.12 38.7905H10.12ZM10.5781 36.2235C10.8808 35.4743 11.2953 34.8566 11.8214 34.3386L7.61176 30.0632C6.47997 31.1776 5.61443 32.4924 5.01506 33.9757L10.5781 36.2235ZM11.8214 34.3386C12.3478 33.8203 12.9809 33.407 13.7548 33.1038L11.5663 27.5171C10.0729 28.1022 8.74321 28.9492 7.61176 30.0632L11.8214 34.3386ZM13.7548 33.1038C14.5031 32.8106 15.3706 32.6443 16.3909 32.6443V26.6443C14.7049 26.6443 13.0855 26.9221 11.5663 27.5171L13.7548 33.1038ZM16.3909 32.6443C17.427 32.6443 18.2999 32.8118 19.0452 33.1038L21.2337 27.5171C19.7115 26.9209 18.0854 26.6443 16.3909 26.6443V32.6443ZM19.0452 33.1038C19.8192 33.407 20.4522 33.8203 20.9786 34.3386L25.1882 30.0632C24.0568 28.9492 22.7271 28.1022 21.2337 27.5171L19.0452 33.1038ZM20.9786 34.3386C21.5047 34.8566 21.9192 35.4743 22.2219 36.2235L27.7849 33.9757C27.1856 32.4924 26.32 31.1776 25.1882 30.0632L20.9786 34.3386ZM22.2219 36.2235C22.5128 36.9433 22.68 37.7866 22.68 38.7905H28.68C28.68 37.1058 28.3962 35.4885 27.7849 33.9757L22.2219 36.2235ZM22.68 38.7905C22.68 39.6045 22.5693 40.2213 22.408 40.6847L28.0743 42.6578C28.4981 41.4407 28.68 40.1371 28.68 38.7905H22.68ZM22.4125 40.672C22.2457 41.1439 22.0752 41.3432 21.9897 41.4214L26.0423 45.846C27.0052 44.964 27.6514 43.855 28.0698 42.6705L22.4125 40.672ZM21.9639 41.4454C21.9548 41.4539 21.9886 41.421 22.0653 41.3902C22.1434 41.3588 22.2055 41.3539 22.224 41.3539V47.3539C23.6924 47.3539 25.0174 46.8074 26.0681 45.8221L21.9639 41.4454ZM22.224 41.3539C22.2522 41.3539 22.3582 41.3592 22.5052 41.416C22.6578 41.4749 22.789 41.5643 22.8842 41.6581L18.6746 45.9335C19.6742 46.9176 20.9404 47.3539 22.224 47.3539V41.3539ZM22.8842 41.6581C22.9794 41.7518 23.0758 41.8865 23.1411 42.0504C23.2045 42.2094 23.2126 42.3298 23.2126 42.3734H17.2126C17.2126 43.6766 17.6716 44.9458 18.6746 45.9335L22.8842 41.6581ZM23.2126 42.3734V41.7973H17.2126V42.3734H23.2126ZM17.715 40.1353C17.7309 40.1115 17.6984 40.1719 17.5313 40.2881L20.9556 45.2149C21.6174 44.755 22.2311 44.1792 22.7102 43.4592L17.715 40.1353ZM17.5459 40.2779C17.4079 40.3726 17.2312 40.4626 16.9963 40.536L18.7843 46.2633C19.549 46.0246 20.2744 45.6825 20.9409 45.2251L17.5459 40.2779ZM16.976 40.5424C16.7839 40.6038 16.5925 40.6337 16.3909 40.6337V46.6337C17.2132 46.6337 18.0214 46.5075 18.8046 46.2569L16.976 40.5424ZM16.3909 40.6337C15.8825 40.6337 15.5423 40.5287 15.2925 40.3916L12.4058 45.6515C13.6432 46.3306 14.9975 46.6337 16.3909 46.6337V40.6337ZM15.3248 40.4096C15.0405 40.249 14.8423 40.0514 14.6857 39.7827L9.5017 42.8036C10.1984 43.9992 11.1705 44.9539 12.3735 45.6336L15.3248 40.4096ZM14.7044 39.8153C14.573 39.5831 14.472 39.2685 14.472 38.7905H8.472C8.472 40.185 8.78547 41.5388 9.483 42.771L14.7044 39.8153ZM14.472 38.7905C14.472 38.2933 14.5762 37.9743 14.7044 37.7478L9.483 34.792C8.78226 36.0299 8.472 37.3913 8.472 38.7905H14.472ZM14.6857 37.7804C14.8379 37.5192 15.0258 37.3358 15.2925 37.1895L12.4058 31.9295C11.1853 32.5994 10.2028 33.5563 9.5017 34.7595L14.6857 37.7804ZM15.3248 37.1715C15.5688 37.0336 15.8972 36.9293 16.3909 36.9293V30.9293C14.9828 30.9293 13.6168 31.2451 12.3735 31.9475L15.3248 37.1715ZM16.3909 36.9293C16.9051 36.9293 17.2229 37.0372 17.4384 37.1609L20.4267 31.9581C19.1794 31.2416 17.8027 30.9293 16.3909 30.9293V36.9293ZM17.4892 37.1895C17.7485 37.3318 17.9214 37.5048 18.059 37.7478L23.2804 34.792C22.589 33.5707 21.6039 32.6034 20.3759 31.9295L17.4892 37.1895ZM18.0777 37.7804C18.2064 38.0013 18.3097 38.3084 18.3097 38.7905H24.3097C24.3097 37.3762 23.9863 36.0029 23.2617 34.7595L18.0777 37.7804ZM18.3097 38.7905V42.0133H24.3097V38.7905H18.3097ZM18.3097 42.0133C18.3097 42.6892 18.4062 43.9465 19.3232 44.9784L23.8082 40.9927C24.1164 41.3395 24.2327 41.6747 24.2748 41.8346C24.3166 41.9931 24.3097 42.0695 24.3097 42.0133H18.3097ZM19.3232 44.9784C20.091 45.8423 21.1415 46.2736 22.224 46.2736V40.2736C22.4542 40.2736 22.7485 40.3165 23.061 40.4532C23.3767 40.5914 23.6269 40.7887 23.8082 40.9927L19.3232 44.9784ZM22.224 46.2736C23.6369 46.2736 24.8146 45.6438 25.6565 44.7291L21.2418 40.6658C21.2873 40.6163 21.4031 40.5079 21.601 40.4148C21.807 40.3179 22.0263 40.2736 22.224 40.2736V46.2736ZM25.6565 44.7291C26.4122 43.9081 26.8709 42.9219 27.1532 41.9491L21.3909 40.2771C21.283 40.6487 21.1932 40.7187 21.2418 40.6658L25.6565 44.7291ZM27.1388 41.997C27.4529 40.9783 27.5829 39.896 27.5829 38.7905H21.5829C21.5829 39.4374 21.5056 39.9036 21.4052 40.2292L27.1388 41.997ZM27.5829 38.7905C27.5829 37.2664 27.3209 35.7957 26.7564 34.4147L21.2024 36.6848C21.4426 37.2723 21.5829 37.962 21.5829 38.7905H27.5829ZM26.7564 34.4147C26.206 33.0679 25.4152 31.8711 24.3837 30.8554L20.174 35.1308C20.6054 35.5555 20.9483 36.063 21.2024 36.6848L26.7564 34.4147ZM24.3837 30.8554C23.3525 29.8401 22.1424 29.0666 20.7874 28.5297L18.5771 34.1077C19.2214 34.363 19.7424 34.7058 20.174 35.1308L24.3837 30.8554ZM20.7874 28.5297C19.399 27.9795 17.9219 27.7246 16.3909 27.7246V33.7246C17.2491 33.7246 17.9663 33.8657 18.5771 34.1077L20.7874 28.5297ZM16.3909 27.7246C14.8598 27.7246 13.3827 27.9795 11.9943 28.5297L14.2046 34.1077C14.8154 33.8657 15.5326 33.7246 16.3909 33.7246V27.7246ZM11.9943 28.5297C10.6393 29.0666 9.42926 29.8401 8.39805 30.8554L12.6077 35.1308C13.0393 34.7058 13.5604 34.363 14.2046 34.1077L11.9943 28.5297ZM8.39805 30.8554C7.3665 31.8711 6.57575 33.0679 6.02529 34.4147L11.5793 36.6848C11.8334 36.0631 12.1764 35.5555 12.6077 35.1308L8.39805 30.8554ZM6.01335 34.4444C5.46913 35.8175 5.21714 37.2777 5.21714 38.7905H11.2171C11.2171 37.9507 11.3552 37.2505 11.5912 36.6551L6.01335 34.4444ZM5.21714 38.7905C5.21714 40.3033 5.46913 41.7636 6.01335 43.1367L11.5912 40.9259C11.3552 40.3306 11.2171 39.6303 11.2171 38.7905H5.21714ZM6.02529 43.1664C6.57575 44.5131 7.3665 45.71 8.39805 46.7256L12.6077 42.4502C12.1764 42.0256 11.8334 41.518 11.5793 40.8963L6.02529 43.1664ZM8.39805 46.7256C9.43593 47.7476 10.656 48.5193 12.0234 49.0447L14.1755 43.444C13.5437 43.2012 13.0326 42.8687 12.6077 42.4502L8.39805 46.7256ZM11.9943 49.0334C13.3827 49.5835 14.8598 49.8385 16.3909 49.8385V43.8385C15.5326 43.8385 14.8154 43.6974 14.2046 43.4553L11.9943 49.0334ZM16.3909 49.8385C17.1946 49.8385 18.0014 49.7459 18.8061 49.575L17.5597 43.7059C17.1209 43.7991 16.733 43.8385 16.3909 43.8385V49.8385ZM18.7946 49.5774C19.5676 49.4164 20.3285 49.1952 21.0167 48.8763L18.4942 43.4323C18.3535 43.4975 18.0659 43.6004 17.5711 43.7035L18.7946 49.5774ZM21.0805 48.8458C21.0159 48.8776 20.2766 49.2411 19.2964 48.8699L21.4213 43.2587C20.1242 42.7675 18.9825 43.191 18.4304 43.4628L21.0805 48.8458ZM19.1177 48.7955C18.5735 48.5482 18.1291 48.1192 17.8623 47.5937C17.6238 47.1241 17.5966 46.7182 17.5966 46.5324H23.5966C23.5966 45.64 23.2366 44.0768 21.6 43.3331L19.1177 48.7955ZM17.5966 46.5324C17.5966 45.6274 18.0322 45.0428 18.2253 44.8274C18.4191 44.6111 18.5691 44.5338 18.5221 44.5616L21.5739 49.7275C21.8926 49.5392 22.3169 49.2519 22.6936 48.8316C23.0695 48.4121 23.5966 47.6295 23.5966 46.5324H17.5966ZM18.4836 44.5848C18.5148 44.5657 18.4918 44.5842 18.3848 44.6232C18.2805 44.6612 18.1235 44.709 17.9021 44.7593L19.2316 50.6101C20.0238 50.4301 20.8692 50.1586 21.6124 49.7044L18.4836 44.5848ZM17.8366 44.7749C17.5115 44.8565 17.0413 44.9188 16.3909 44.9188V50.9188C17.3983 50.9188 18.3788 50.8249 19.2971 50.5945L17.8366 44.7749ZM16.3909 45.5534C17.5838 45.5534 18.7633 45.2891 19.8427 44.6786L16.8887 39.4561C16.8223 39.4937 16.6852 39.5534 16.3909 39.5534V45.5534ZM19.8427 44.6786C20.874 44.0952 21.7112 43.2733 22.3101 42.2468L17.1276 39.2232C17.0683 39.3249 17.0033 39.3913 16.8887 39.4561L19.8427 44.6786ZM22.3101 42.2468C22.9382 41.1702 23.2126 39.9882 23.2126 38.7905H17.2126C17.2126 39.0572 17.1578 39.1715 17.1276 39.2232L22.3101 42.2468ZM23.2126 38.7905C23.2126 37.5905 22.9425 36.4002 22.3101 35.3162L17.1276 38.3399C17.1535 38.3842 17.2126 38.5022 17.2126 38.7905H23.2126ZM22.3101 35.3162C21.7112 34.2897 20.874 33.4678 19.8427 32.8845L16.8887 38.107C17.0033 38.1718 17.0683 38.2381 17.1276 38.3399L22.3101 35.3162ZM19.8427 32.8845C18.7633 32.2739 17.5838 32.0096 16.3909 32.0096V38.0096C16.6852 38.0096 16.8223 38.0694 16.8887 38.107L19.8427 32.8845ZM16.3909 32.0096C15.1979 32.0096 14.0185 32.2739 12.939 32.8845L15.893 38.107C15.9595 38.0694 16.0966 38.0096 16.3909 38.0096V32.0096ZM12.939 32.8845C11.9077 33.4678 11.0706 34.2897 10.4716 35.3162L15.6541 38.3399C15.7134 38.2381 15.7784 38.1718 15.893 38.107L12.939 32.8845ZM10.4716 35.3162C9.8392 36.4002 9.56914 37.5905 9.56914 38.7905H15.5691C15.5691 38.5022 15.6282 38.3842 15.6541 38.3399L10.4716 35.3162ZM9.56914 38.7905C9.56914 39.9882 9.84349 41.1702 10.4716 42.2468L15.6541 39.2232C15.6239 39.1715 15.5691 39.0572 15.5691 38.7905H9.56914ZM10.4716 42.2468C11.0706 43.2733 11.9077 44.0952 12.939 44.6786L15.893 39.4561C15.7784 39.3913 15.7134 39.3249 15.6541 39.2232L10.4716 42.2468ZM12.939 44.6786C14.0185 45.2891 15.1979 45.5534 16.3909 45.5534V39.5534C16.0965 39.5534 15.9594 39.4937 15.893 39.4561L12.939 44.6786Z" fill="black" mask="url(#path-1-outside-1_334_881)"/>
</svg>
