<svg width="48" height="48" viewBox="0 0 48 48" fill="none" xmlns="http://www.w3.org/2000/svg">
<path fill-rule="evenodd" clip-rule="evenodd" d="M45 12.6452H22.8L19.2 8.12903C19.0392 7.97777 18.9215 7.82651 18.8123 7.68611C18.5138 7.30252 18.2785 7 17.4 7H1.8C0.6 7 0 7.56452 0 8.12903V39.1774C0 40.871 1.2 42 3 42H45C46.8 42 48 40.871 48 39.1774V16.0323C48 14.3387 46.8 12.6452 45 12.6452ZM43.1333 15.4375H21.5L18 11C17.8701 10.8727 17.7759 10.7407 17.6868 10.6159C17.4486 10.282 17.2473 10 16.5 10H4.54C3.51333 10 3 10.4677 3 10.9355V36.6613C3 38.0645 4.02667 39 5.56667 39H43.1333C44.6733 39 45 38.1376 45 36.7344V17.7031C45 16.2999 44.6733 15.4375 43.1333 15.4375Z" fill="black"/>
</svg>
