<svg width="47" height="50" viewBox="0 0 47 50" fill="none" xmlns="http://www.w3.org/2000/svg">
<rect x="1.5" y="8.5" width="35" height="40" stroke="#0B0B0F" stroke-width="3"/>
<path fill-rule="evenodd" clip-rule="evenodd" d="M24.1716 35.92C29.5696 35.92 33.9454 31.9085 33.9454 26.96C33.9454 22.0115 29.5696 18 24.1716 18C18.7737 18 14.3978 22.0115 14.3978 26.96C14.3978 31.9085 18.7737 35.92 24.1716 35.92ZM32.14 50H16.1269L8 39.2328L40 39.0117L32.14 50ZM17.5 29C18.3284 29 19 28.3284 19 27.5C19 26.6716 18.3284 26 17.5 26C16.6716 26 16 26.6716 16 27.5C16 28.3284 16.6716 29 17.5 29Z" fill="#0B0B0F"/>
<path fill-rule="evenodd" clip-rule="evenodd" d="M29 0L0 7V50H29V0ZM24.5 29C25.3284 29 26 28.3284 26 27.5C26 26.6716 25.3284 26 24.5 26C23.6716 26 23 26.6716 23 27.5C23 28.3284 23.6716 29 24.5 29Z" fill="#0B0B0F"/>
</svg>
