<svg width="47" height="50" viewBox="0 0 47 50" fill="none" xmlns="http://www.w3.org/2000/svg">
<rect x="1.5" y="8.5" width="35" height="40" stroke="#0B0B0F" stroke-width="3"/>
<path fill-rule="evenodd" clip-rule="evenodd" d="M31.1716 35.92C36.5696 35.92 40.9454 31.9085 40.9454 26.96C40.9454 22.0115 36.5696 18 31.1716 18C25.7737 18 21.3978 22.0115 21.3978 26.96C21.3978 31.9085 25.7737 35.92 31.1716 35.92ZM39.14 50H23.1269L15 39.2328L47 39.0117L39.14 50ZM24.5 29C25.3284 29 26 28.3284 26 27.5C26 26.6716 25.3284 26 24.5 26C23.6716 26 23 26.6716 23 27.5C23 28.3284 23.6716 29 24.5 29Z" fill="#0B0B0F"/>
<path fill-rule="evenodd" clip-rule="evenodd" d="M29 0L0 7V50H29V0ZM24.5 29C25.3284 29 26 28.3284 26 27.5C26 26.6716 25.3284 26 24.5 26C23.6716 26 23 26.6716 23 27.5C23 28.3284 23.6716 29 24.5 29Z" fill="#0B0B0F"/>
</svg>
