<svg width="57" height="56" viewBox="0 0 57 56" fill="none" xmlns="http://www.w3.org/2000/svg">
<g clip-path="url(#clip0_110_421)">
<path d="M55.5613 18.8883L43 9.5L29.8802 1.38937C28.7377 0.612068 27.2622 0.611588 26.1197 1.38986L13 9.5L0.438665 18.8883C-0.017855 19.1988 -0.135515 19.8209 0.175495 20.2774C0.486515 20.7344 1.10805 20.853 1.56457 20.5406L14.5 12L27.2456 3.04259C27.7036 2.73011 28.2963 2.7306 28.7543 3.0421L37.5 8.5L54.4354 20.5405C55.5069 21.2601 56.6502 19.6549 55.5613 18.8883Z" fill="black"/>
<path d="M49.8587 20.6705L29.8799 7.05129C28.7399 6.27131 27.26 6.27131 26.1201 7.05129C23.5 10 6.14133 20.6705 6.14133 20.6705C5.23141 21.2904 4.6814 22.3204 4.6814 23.4203C4.6814 23.4203 5 49 4.6814 51.6975C4.6814 53.5374 6.18131 55.1884 8.02122 55.1884H18.6406C19.1905 55.1884 19.6405 54.7384 19.6405 54.1884L19.5 42L19.6405 34.4696C19.6405 33.9197 20.0905 33.4697 20.6404 33.4697H34.4596C35.0096 33.4697 35.4596 33.9196 35.4596 34.4696C35.4596 40 35.5 43.5 35.4596 54.1884C35.4596 54.1884 35.8995 55.1884 36.4595 55.1884H47.9788C49.8187 55.1884 51.3186 53.6885 51.3186 51.8486C51.3186 51.8486 52 32.5 51.3186 23.4203C51.3186 22.3204 50.7686 21.2904 49.8587 20.6705Z" fill="black"/>
</g>
<defs>
<clipPath id="clip0_110_421">
<rect width="57" height="56" fill="white"/>
</clipPath>
</defs>
</svg>
