<svg width="64" height="64" viewBox="0 0 64 64" fill="none" xmlns="http://www.w3.org/2000/svg">
<path d="M26.5876 45.8017C26.655 46.2273 26.7233 46.5847 26.7926 46.874C26.9617 47.5811 27.2704 48.1528 27.7186 48.5893C28.1668 49.0258 28.6283 49.3741 29.1031 49.6343C29.6027 49.8545 30.0668 49.9983 30.4955 50.0657C30.9241 50.133 31.2034 50.1511 31.3335 50.12C31.4961 50.0811 31.5466 49.9331 31.4851 49.676C31.4638 49.4432 31.3839 49.0376 31.2455 48.459C31.1088 47.7442 31.0753 46.8857 31.1449 45.8836C31.2068 44.8493 31.309 43.8394 31.4513 42.8539C31.6202 41.6921 31.7519 40.5902 31.8463 39.5482C31.9733 38.4984 32.1242 37.4769 32.2991 36.4836C32.5064 35.4825 32.754 34.5057 33.0418 33.5534C33.3621 32.5933 33.7962 31.6059 34.3441 30.5913C33.4708 29.8148 32.5174 29.2783 31.4839 28.9819C30.4427 28.6534 29.6304 28.4909 29.0469 28.4946C28.3836 29.0271 27.8641 29.7291 27.4882 30.6006C27.1448 31.4643 26.8741 32.3446 26.6762 33.2415C26.5031 34.0985 26.3874 34.9077 26.3289 35.6693C26.2705 36.4308 26.2472 36.9801 26.2591 37.3171C26.28 38.8412 26.2997 40.1448 26.3182 41.2277C26.3692 42.3029 26.4181 43.2257 26.4649 43.996C26.504 44.7342 26.5449 45.3361 26.5876 45.8017Z" fill="black"/>
<path d="M31.0405 22.8186C31.0353 23.2276 31.0557 23.5285 31.1018 23.7214C31.1634 23.9785 31.375 24.2167 31.7369 24.4359C32.0911 24.623 32.4709 24.7021 32.8765 24.673C32.945 24.3847 33.1338 23.8808 33.4429 23.1612C33.752 22.4416 34.1022 21.6782 34.4935 20.871C34.8771 20.0316 35.2884 19.2366 35.7276 18.4859C36.1591 17.703 36.5113 17.0921 36.7844 16.6529C36.4397 16.3616 35.9773 16.0815 35.3973 15.8125C34.8096 15.5113 34.1847 15.2701 33.5225 15.0887C32.8526 14.8752 32.202 14.7421 31.5706 14.6892C30.964 14.5965 30.4656 14.5968 30.0754 14.6902C30.0034 15.2511 29.9467 15.8763 29.9054 16.5658C29.8564 17.2232 29.8361 17.8567 29.8445 18.4663C29.8528 19.076 29.8698 19.6496 29.8953 20.1872C29.9456 20.6849 30.0054 21.0784 30.0746 21.3676C30.1361 21.6248 30.2541 21.9023 30.4285 22.2004C30.6355 22.4907 30.8395 22.6968 31.0405 22.8186Z" fill="black"/>
</svg>
