<svg width="114" height="86" viewBox="0 0 114 86" fill="none" xmlns="http://www.w3.org/2000/svg">
<path d="M109.631 7.84199V72.1508L108.08 72.8005C103.999 74.4875 99.3471 75.2854 93.4186 75.2854C92.347 75.2854 91.2297 75.2626 89.9984 75.2056C88.3339 75.1372 86.6579 75.0346 85.0276 74.9206C82.3484 74.7383 79.5666 74.5673 76.8874 74.5673C75.4965 74.5673 74.231 74.6129 73.0339 74.7041C68.8042 75.0346 62.8985 76.2428 58.7372 80.141L57.0043 81.7368L55.2828 80.1296C51.1101 76.2428 45.2044 75.0232 40.9861 74.6927C39.7776 74.6129 38.5121 74.5673 37.1212 74.5673C34.442 74.5673 31.6602 74.7496 28.981 74.9206C27.3621 75.0232 25.6747 75.1372 24.0102 75.2056C22.7789 75.2512 21.6616 75.2854 20.59 75.2854C14.6729 75.2854 10.01 74.4989 5.92845 72.8005L4.37793 72.1508V7.84199H0V78.5567C5.93985 81.0187 13.6924 81.2922 20.1111 81.0187C26.5298 80.7565 32.9599 79.9814 39.3672 80.483C43.9959 80.8477 48.6931 81.9419 52.7176 84.1874C55.3854 85.6692 58.6346 85.6692 61.3024 84.1874C65.3269 81.9533 70.0241 80.8477 74.6528 80.483C81.0601 79.9814 87.4902 80.7565 93.9089 81.0187C100.328 81.2808 108.069 81.0187 114.009 78.5567V7.84199H109.631Z" fill="#F5FFFE"/>
<path d="M23.9076 72.6752C29.665 72.4358 35.4339 71.7405 41.1799 72.1964C46.9259 72.641 52.7974 74.3621 57.0043 78.2945C61.2112 74.3621 67.0827 72.641 72.8287 72.1964C78.5747 71.7519 84.3436 72.4358 90.101 72.6752C95.8584 72.9145 101.787 72.6638 107.111 70.4639V0C101.787 2.21126 95.8584 2.45062 90.101 2.21126C84.3436 1.9719 78.5747 1.2766 72.8287 1.73253C67.0827 2.18846 61.2112 3.8982 57.0043 7.84199C52.7974 3.8982 46.9259 2.18846 41.1799 1.73253C35.4339 1.288 29.665 1.9719 23.9076 2.21126C18.1502 2.45062 12.2217 2.19986 6.89752 0V70.4639C12.2217 72.6638 18.1502 72.9145 23.9076 72.6752ZM69.0208 53.5831H80.2962V40.9539C77.7995 41.615 75.2571 42.1165 72.6805 42.4584C72.6349 42.4584 72.6007 42.4698 72.5551 42.4698C72.0876 42.4698 71.6772 42.1279 71.6202 41.6492C71.5518 41.1362 71.9166 40.6575 72.4297 40.5891C75.0861 40.2472 77.7082 39.7115 80.2848 39.0162V39.0048C80.2848 38.9592 80.2735 38.925 80.2735 38.8794V25.5435C79.8744 25.6232 79.464 25.6916 79.065 25.7714C76.2945 26.3071 73.4329 26.8656 70.5257 26.8656C70.4915 26.8656 70.4573 26.8656 70.4231 26.8656C69.8987 26.8656 69.4768 26.4325 69.4882 25.9196C69.4882 25.3953 69.9101 24.9849 70.4345 24.9849C70.4687 24.9849 70.5029 24.9849 70.5371 24.9849C73.2619 24.9849 76.0323 24.4492 78.7229 23.9249C79.5096 23.7767 80.2848 23.6171 81.0715 23.4804C84.5032 22.8763 88.5163 22.3975 92.3242 23.5032C92.8258 23.6513 93.1108 24.1757 92.9626 24.6772C92.8144 25.1787 92.2899 25.4637 91.7883 25.3155C88.6303 24.3922 85.21 24.7 82.1774 25.2015V38.4577C84.2637 37.8194 86.3045 37.0671 88.3111 36.1894C88.7899 35.9842 89.3485 36.2008 89.5537 36.6795C89.759 37.1583 89.5423 37.7168 89.0635 37.9219C86.8175 38.9022 84.526 39.7229 82.1888 40.4181V53.5717H93.5554L91.2069 48.887C90.9789 48.4197 91.1613 47.8498 91.6287 47.6218C92.0961 47.3939 92.6662 47.5762 92.8942 48.0436L95.9268 54.1074C96.075 54.4038 96.0522 54.7457 95.8812 55.0307C95.7102 55.3042 95.4024 55.4752 95.0832 55.4752H69.0208C68.4964 55.4752 68.0745 55.0535 68.0745 54.5292C68.0859 54.0048 68.5078 53.5831 69.0208 53.5831Z" fill="#F5FFFE"/>
</svg>
