<svg width="125" height="109" viewBox="0 0 125 109" fill="none" xmlns="http://www.w3.org/2000/svg">
<path d="M79.061 0.00201336C78.66 0.0201804 78.259 0.138269 77.9152 0.365355L62.4992 10.4481L47.0832 0.365355C46.6405 0.0792278 46.0884 -0.0479475 45.5416 0.0201746C44.9948 0.0882967 44.4999 0.342636 44.1667 0.728696C43.474 1.53259 43.6615 2.6726 44.5833 3.27209L56.25 10.9023H6.25C2.82293 10.9023 0 13.3639 0 16.3524V70.8536C0 73.842 2.82293 76.3037 6.25 76.3037H14.5833C14.5833 71.3213 19.2864 67.2202 25 67.2202H31.25C31.25 63.2279 35.0052 59.9533 39.5833 59.9533C41.1667 59.9533 42.6563 60.3439 43.9219 61.0252C45.6459 59.263 48.1979 58.1366 51.0416 58.1366C53.8853 58.1366 56.4427 59.263 58.1667 61.0252C59.4323 60.3485 60.9167 59.9533 62.5 59.9533C64.0833 59.9533 65.5729 60.3439 66.8385 61.0252C68.5625 59.263 71.1145 58.1366 73.9583 58.1366C76.802 58.1366 79.3593 59.263 81.0833 61.0252C82.349 60.3485 83.8333 59.9533 85.4167 59.9533C89.9948 59.9533 93.75 63.2279 93.75 67.2202H100C105.714 67.2202 110.417 71.3213 110.417 76.3037H118.75C122.177 76.3037 125 73.842 125 70.8536V16.3524C125 13.3639 122.177 10.9023 118.75 10.9023H68.75L80.4167 3.27209C81.3386 2.67258 81.526 1.53258 80.8333 0.728696C80.401 0.224564 79.7292 -0.0252401 79.0625 0.00201336H79.061ZM56.7277 22.7152C56.9204 22.7107 57.1183 22.7107 57.311 22.7243C58.3527 22.7833 59.3892 23.1013 60.311 23.7235L75.9724 34.2921C78.8317 36.2224 78.8317 40.0965 75.9724 42.0267L60.311 52.5953C56.634 55.0751 51.035 52.6816 51.035 48.6303V27.6972C51.035 24.8496 53.8058 22.8194 56.7277 22.724V22.7152ZM56.66 26.2442C56.4465 26.2488 56.2381 26.2942 56.0558 26.3714C55.5611 26.5848 55.2069 27.0481 55.2069 27.6839V48.6171C55.2069 49.8842 56.6131 50.4883 57.7642 49.7116L73.4255 39.143C74.212 38.6116 74.212 37.6851 73.4255 37.1583L57.7642 26.5896C57.4048 26.3489 57.0194 26.2354 56.66 26.2399L56.66 26.2442ZM51.0349 61.7703C49.2849 61.7703 47.7589 62.506 46.8161 63.6415C47.5088 64.6998 47.9099 65.9214 47.9099 67.2204H54.1599C54.1599 65.9214 54.5609 64.6997 55.2536 63.6415C54.3109 62.5061 52.7849 61.7703 51.0349 61.7703ZM73.9523 61.7703C72.2023 61.7703 70.6763 62.506 69.7335 63.6415C70.4262 64.6998 70.8272 65.9214 70.8272 67.2204H77.0772C77.0772 65.9214 77.4783 64.6997 78.171 63.6415C77.2283 62.5061 75.7023 61.7703 73.9523 61.7703ZM39.5776 63.587C37.2495 63.587 35.4109 65.1902 35.4109 67.2204H43.7443C43.7443 65.1902 41.9057 63.587 39.5776 63.587ZM62.4949 63.587C60.1668 63.587 58.3283 65.1902 58.3283 67.2204H66.6616C66.6616 65.1902 64.8231 63.587 62.4949 63.587ZM85.4123 63.587C83.0841 63.587 81.2456 65.1902 81.2456 67.2204H89.5789C89.5789 65.1902 87.7404 63.587 85.4123 63.587ZM24.9963 70.8538C21.5692 70.8538 18.7463 73.3155 18.7463 76.3039C18.7463 85.0923 20.9129 93.3676 27.6681 99.4078C34.4285 105.453 45.4961 109 62.4961 109C79.4908 109 90.5641 105.448 97.3241 99.4078C104.085 93.3627 106.246 85.0881 106.246 76.3039C106.246 73.3155 103.423 70.8538 99.996 70.8538H24.9963Z" fill="#F5FFFE"/>
</svg>
