<svg width="45" height="45" viewBox="0 0 45 45" fill="none" xmlns="http://www.w3.org/2000/svg">
<path fill-rule="evenodd" clip-rule="evenodd" d="M1.483 3.73838C1.1736 4.1792 1 9.48293 1 18.5151C1 27.5474 1.1736 32.8511 1.483 33.2919C1.91887 33.9123 2.5064 33.9795 7.47967 33.9795H12.9929L16.8667 39.4897C20.4101 44.5304 20.8487 45 22.0126 45C23.1779 45 23.6063 44.5375 27.1184 39.4897L30.9525 33.9795H36.4933C41.4936 33.9795 42.0811 33.9123 42.517 33.2919C42.8264 32.8511 43 27.5474 43 18.5151C43 9.48293 42.8264 4.1792 42.517 3.73838C42.0508 3.07502 41.3293 3.05084 22 3.05084C2.67067 3.05084 1.9492 3.07502 1.483 3.73838ZM5.2 18.5034V31.112L10.45 31.2126L15.7 31.3132L18.7333 35.6667C20.4017 38.0613 21.8717 40.0184 22 40.0162C22.1283 40.0137 23.5983 38.0546 25.2667 35.6628L28.3 31.3132L33.55 31.2126L38.8 31.112V18.5034V5.89485H22H5.2V18.5034ZM20.6448 11.0084C20.2789 11.3443 20.1497 13.2736 20.2379 17.1024C20.3503 21.9856 20.4717 22.7549 21.1833 23.0965C21.7783 23.3823 22.2217 23.3823 22.8167 23.0965C23.5293 22.7549 23.6497 21.9834 23.7626 17.0569C23.8765 12.0585 23.7995 11.3582 23.0901 10.9629C22.0509 10.3841 21.3103 10.398 20.6448 11.0084ZM20.8781 25.2007C19.1281 26.1755 20.9887 28.5929 22.8167 27.7201C23.9661 27.1712 24.1364 25.766 23.1219 25.2007C22.6631 24.9455 22.1587 24.7364 22 24.7364C21.8413 24.7364 21.3369 24.9455 20.8781 25.2007Z" fill="black"/>
</svg>
