<svg width="48" height="49" viewBox="0 0 48 49" fill="none" xmlns="http://www.w3.org/2000/svg">
<g clip-path="url(#clip0_110_428)">
<path fill-rule="evenodd" clip-rule="evenodd" d="M0 18.5C0 28.7173 8.28273 37 18.5 37C22.8418 37 27 35.5 29 34C29 34 42 47.7508 43 48.5C45.5 50 48.5 47 46.5 44.5C40.5 38.5 38.2624 36.5085 33 31C36 27 37 23 37 18.5C37 8.28273 28.7173 0 18.5 0C8.28273 0 0 8.28273 0 18.5ZM18.5 34C27.6127 34 34 27.6127 34 18.5C34 9.3873 27.6127 3 18.5 3C9.3873 3 3 9.3873 3 18.5C3 27.6127 9.3873 34 18.5 34Z" fill="black"/>
</g>
<defs>
<clipPath id="clip0_110_428">
<rect width="48" height="49" fill="white"/>
</clipPath>
</defs>
</svg>
