<svg width="64" height="64" viewBox="0 0 64 64" fill="none" xmlns="http://www.w3.org/2000/svg">
<path fill-rule="evenodd" clip-rule="evenodd" d="M56 31.04H8V60.3971H56V31.04ZM37.4401 53.5046H26.5601V56.0574H37.4401V53.5046Z" fill="black" fill-opacity="0.79"/>
<path d="M46.5338 31.04H49.6781L49.92 18.8381C49.92 15.8387 46.171 3.69842 31.9005 3.84125C17.63 3.98407 13.76 16.1244 13.76 18.8381H14.0019L17.5 18.826C17.5 16.7296 20.6154 7.66605 32.0699 7.55572C43.5245 7.44538 46.5338 16.8238 46.5338 19.1408V31.04Z" fill="black" fill-opacity="0.79"/>
<path d="M46.2919 31.04H46.5338V19.1408C46.5338 16.8238 43.5245 7.44538 32.0699 7.55572C20.6154 7.66605 17.5 16.7296 17.5 18.826H17.7419C17.7419 18.3613 17.9293 17.7409 18.3921 16.5838C18.8514 15.4352 19.5822 14.0904 20.6654 12.805C22.8274 10.2397 26.406 7.89594 32.0719 7.84136C37.7372 7.78679 41.2892 10.076 43.425 12.6384C44.4954 13.9226 45.2139 15.2801 45.6642 16.4554C46.1172 17.6375 46.2919 18.6165 46.2919 19.1408V31.04Z" fill="black" fill-opacity="0.79"/>
</svg>
