<svg width="64" height="64" viewBox="0 0 64 64" fill="none" xmlns="http://www.w3.org/2000/svg">
<path fill-rule="evenodd" clip-rule="evenodd" d="M56 31.04H8V60.3971H56V31.04ZM37.4401 53.5046H26.5601V56.0574H37.4401V53.5046Z" fill="black" fill-opacity="0.79"/>
<path fill-rule="evenodd" clip-rule="evenodd" d="M46.5338 19.1408V31.04H17.509V19.1408C17.509 17.0445 20.6154 7.66605 32.0699 7.55572C43.5245 7.44538 46.5338 16.8238 46.5338 19.1408ZM17.7509 31.04V19.1408C17.7509 18.6762 17.9293 17.7409 18.3921 16.5838C18.8514 15.4352 19.5822 14.0904 20.6654 12.805C22.8274 10.2397 26.406 7.89594 32.0719 7.84136C37.7372 7.78679 41.2892 10.076 43.425 12.6384C44.4954 13.9226 45.2139 15.2801 45.6642 16.4554C46.1172 17.6375 46.2919 18.6165 46.2919 19.1408V31.04H17.7509Z" fill="black" fill-opacity="0.79"/>
<path fill-rule="evenodd" clip-rule="evenodd" d="M49.92 18.8381L49.6781 31.04H13.76V18.8381C13.76 16.1244 17.63 3.98407 31.9005 3.84125C46.171 3.69842 49.92 15.8387 49.92 18.8381ZM14.0019 31.04V18.8381C14.0019 18.2169 14.2292 16.9918 14.8079 15.4883C15.3834 13.9929 16.2983 12.244 17.6535 10.5732C20.3591 7.2374 24.8317 4.19766 31.9025 4.12689C38.9727 4.05613 43.4126 7.02496 46.0861 10.3578C47.4254 12.0275 48.3251 13.7931 48.8895 15.3235C49.4562 16.8602 49.6781 18.1411 49.6781 18.8381L49.5 31L14.0019 31.04Z" fill="black" fill-opacity="0.79"/>
<path fill-rule="evenodd" clip-rule="evenodd" d="M14.0019 18.8381V31.04L49.5 31L49.6781 18.8381C49.6781 18.1411 49.4562 16.8602 48.8895 15.3235C48.3251 13.7931 47.4254 12.0275 46.0861 10.3578C43.4126 7.02496 38.9727 4.05613 31.9025 4.12689C24.8317 4.19766 20.3591 7.2374 17.6535 10.5732C16.2983 12.244 15.3834 13.9929 14.8079 15.4883C14.2292 16.9918 14.0019 18.2169 14.0019 18.8381ZM17.509 19.1408C17.509 17.0445 20.6154 7.66605 32.0699 7.55572C43.5245 7.44538 46.5338 16.8238 46.5338 19.1408V31.04H17.509V19.1408Z" fill="black" fill-opacity="0.79"/>
</svg>
